<svg version="1.1" viewBox="0.0 0.0 536.5249343832021 901.6325459317585" fill="none" stroke="none" stroke-linecap="square" stroke-miterlimit="10" xmlns:xlink="http://www.w3.org/1999/xlink" xmlns="http://www.w3.org/2000/svg"><clipPath id="p.0"><path d="m0 0l536.52496 0l0 901.63257l-536.52496 0l0 -901.63257z" clip-rule="nonzero"/></clipPath><g clip-path="url(#p.0)"><path fill="#000000" fill-opacity="0.0" d="m0 0l536.52496 0l0 901.63257l-536.52496 0z" fill-rule="evenodd"/><path fill="#ffffff" d="m114.67979 46.582985l0 0c0 -8.541016 6.9238663 -15.464874 15.464882 -15.464874l382.07812 0c4.1015625 0 8.035095 1.6293297 10.935303 4.5295563c2.9002686 2.9002266 4.529602 6.8337784 4.529602 10.935318l0 61.85765c0 8.541016 -6.923889 15.464874 -15.464905 15.464874l-382.07812 0c-8.541016 0 -15.464882 -6.9238586 -15.464882 -15.464874z" fill-rule="evenodd"/><path stroke="#000000" stroke-width="3.0" stroke-linejoin="round" stroke-linecap="butt" d="m114.67979 46.582985l0 0c0 -8.541016 6.9238663 -15.464874 15.464882 -15.464874l382.07812 0c4.1015625 0 8.035095 1.6293297 10.935303 4.5295563c2.9002686 2.9002266 4.529602 6.8337784 4.529602 10.935318l0 61.85765c0 8.541016 -6.923889 15.464874 -15.464905 15.464874l-382.07812 0c-8.541016 0 -15.464882 -6.9238586 -15.464882 -15.464874z" fill-rule="evenodd"/><path fill="#000000" fill-opacity="0.0" d="m163.97113 59.51181l308.56693 0l0 36.0l-308.56693 0z" fill-rule="evenodd"/><path fill="#000000" d="m174.768 82.70869l3.578125 -0.3125q0.25 2.15625 1.171875 3.53125q0.9375 1.375 2.890625 2.234375q1.953125 0.84375 4.390625 0.84375q2.171875 0 3.828125 -0.640625q1.65625 -0.65625 2.46875 -1.78125q0.8125 -1.125 0.8125 -2.453125q0 -1.34375 -0.78125 -2.34375q-0.78125 -1.015625 -2.578125 -1.6875q-1.15625 -0.453125 -5.109375 -1.390625q-3.9375 -0.953125 -5.515625 -1.796875q-2.046875 -1.078125 -3.0625 -2.671875q-1.0 -1.59375 -1.0 -3.5625q0 -2.171875 1.234375 -4.046875q1.234375 -1.890625 3.59375 -2.8593788q2.359375 -0.984375 5.25 -0.984375q3.1875 0 5.609375 1.03125q2.4375 1.0156288 3.75 3.0156288q1.3125 1.984375 1.40625 4.515625l-3.640625 0.265625q-0.28125 -2.71875 -1.984375 -4.09375q-1.6875 -1.390625 -4.984375 -1.390625q-3.4375 0 -5.015625 1.265625q-1.5625 1.25 -1.5625 3.03125q0 1.546875 1.109375 2.53125q1.09375 1.0 5.703125 2.046875q4.625 1.046875 6.34375 1.828125q2.5 1.15625 3.6875 2.921875q1.203125 1.765625 1.203125 4.0625q0 2.296875 -1.3125 4.3125q-1.3125 2.015625 -3.765625 3.140625q-2.4375 1.125 -5.515625 1.125q-3.875 0 -6.515625 -1.125q-2.625 -1.140625 -4.125 -3.40625q-1.484375 -2.28125 -1.5625 -5.15625zm41.726562 2.515625l3.625 0.453125q-0.859375 3.1875 -3.1875 4.953125q-2.3125 1.75 -5.9375 1.75q-4.546875 0 -7.21875 -2.796875q-2.65625 -2.8125 -2.65625 -7.875q0 -5.234375 2.6875 -8.125q2.703125 -2.890625 7.0 -2.890625q4.15625 0 6.796875 2.84375q2.640625 2.828125 2.640625 7.96875q0 0.3125 -0.03125 0.9375l-15.46875 0q0.203125 3.40625 1.9375 5.234375q1.734375 1.8125 4.34375 1.8125q1.921875 0 3.28125 -1.015625q1.375 -1.015625 2.1875 -3.25zm-11.546875 -5.671875l11.578125 0q-0.234375 -2.625 -1.328125 -3.9375q-1.671875 -2.03125 -4.359375 -2.03125q-2.421875 0 -4.078125 1.625q-1.640625 1.625 -1.8125 4.34375zm19.511719 12.359375l0 -28.640629l3.515625 0l0 28.640629l-3.515625 0zm9.808594 0l0 -18.015625l-3.109375 0l0 -2.734375l3.109375 0l0 -2.203125q0 -2.09375 0.359375 -3.109375q0.515625 -1.359375 1.796875 -2.2031288q1.28125 -0.859375 3.578125 -0.859375q1.484375 0 3.28125 0.359375l-0.53125 3.0625038q-1.09375 -0.203125 -2.0625 -0.203125q-1.609375 0 -2.28125 0.6875q-0.65625 0.6875 -0.65625 2.5625l0 1.90625l4.046875 0l0 2.734375l-4.046875 0l0 18.015625l-3.484375 0zm21.945312 0l0 -28.640629l3.796875 0l0 11.765629l14.875 0l0 -11.765629l3.796875 0l0 28.640629l-3.796875 0l0 -13.5l-14.875 0l0 13.5l-3.796875 0zm42.527344 -6.6875l3.625 0.453125q-0.859375 3.1875 -3.1875 4.953125q-2.3125 1.75 -5.9375 1.75q-4.546875 0 -7.21875 -2.796875q-2.65625 -2.8125 -2.65625 -7.875q0 -5.234375 2.6875 -8.125q2.703125 -2.890625 7.0 -2.890625q4.15625 0 6.796875 2.84375q2.640625 2.828125 2.640625 7.96875q0 0.3125 -0.03125 0.9375l-15.46875 0q0.203125 3.40625 1.9375 5.234375q1.734375 1.8125 4.34375 1.8125q1.921875 0 3.28125 -1.015625q1.375 -1.015625 2.1875 -3.25zm-11.546875 -5.671875l11.578125 0q-0.234375 -2.625 -1.328125 -3.9375q-1.671875 -2.03125 -4.359375 -2.03125q-2.421875 0 -4.078125 1.625q-1.640625 1.625 -1.8125 4.34375zm33.121094 9.796875q-1.953125 1.65625 -3.765625 2.34375q-1.796875 0.6875 -3.875 0.6875q-3.40625 0 -5.25 -1.671875q-1.828125 -1.671875 -1.828125 -4.265625q0 -1.53125 0.6875 -2.78125q0.6875 -1.265625 1.8125 -2.015625q1.125 -0.765625 2.53125 -1.15625q1.03125 -0.28125 3.125 -0.53125q4.265625 -0.515625 6.265625 -1.21875q0.03125 -0.71875 0.03125 -0.90625q0 -2.15625 -1.0 -3.03125q-1.34375 -1.1875 -4.0 -1.1875q-2.484375 0 -3.671875 0.875q-1.171875 0.859375 -1.75 3.0625l-3.4375 -0.46875q0.46875 -2.203125 1.546875 -3.5625q1.078125 -1.359375 3.109375 -2.09375q2.03125 -0.734375 4.703125 -0.734375q2.65625 0 4.3125 0.625q1.671875 0.625 2.453125 1.578125q0.78125 0.953125 1.09375 2.390625q0.171875 0.90625 0.171875 3.25l0 4.6875q0 4.890625 0.21875 6.203125q0.234375 1.296875 0.890625 2.484375l-3.671875 0q-0.546875 -1.09375 -0.703125 -2.5625zm-0.296875 -7.84375q-1.90625 0.78125 -5.734375 1.328125q-2.171875 0.3125 -3.078125 0.703125q-0.890625 0.390625 -1.375 1.140625q-0.484375 0.75 -0.484375 1.671875q0 1.40625 1.0625 2.34375q1.0625 0.9375 3.109375 0.9375q2.03125 0 3.609375 -0.890625q1.59375 -0.890625 2.328125 -2.4375q0.5625 -1.1875 0.5625 -3.515625l0 -1.28125zm8.933594 10.40625l0 -28.640629l3.515625 0l0 28.640629l-3.515625 0zm8.980469 -24.59375l0 -4.046879l3.515625 0l0 4.046879l-3.515625 0zm0 24.59375l0 -20.75l3.515625 0l0 20.75l-3.515625 0zm8.871094 0l0 -20.75l3.15625 0l0 2.953125q2.296875 -3.421875 6.609375 -3.421875q1.875 0 3.4375 0.6875q1.578125 0.671875 2.359375 1.765625q0.78125 1.09375 1.09375 2.59375q0.203125 0.96875 0.203125 3.421875l0 12.75l-3.515625 0l0 -12.625q0 -2.140625 -0.421875 -3.203125q-0.40625 -1.0625 -1.453125 -1.703125q-1.046875 -0.640625 -2.453125 -0.640625q-2.234375 0 -3.875 1.4375q-1.625 1.421875 -1.625 5.40625l0 11.328125l-3.515625 0zm21.605469 1.71875l3.40625 0.515625q0.21875 1.578125 1.203125 2.296875q1.296875 0.984375 3.5625 0.984375q2.453125 0 3.78125 -0.984375q1.328125 -0.96875 1.796875 -2.734375q0.265625 -1.078125 0.25 -4.515625q-2.3125 2.71875 -5.75 2.71875q-4.265625 0 -6.609375 -3.078125q-2.34375 -3.09375 -2.34375 -7.40625q0 -2.96875 1.0625 -5.484375q1.078125 -2.515625 3.109375 -3.875q2.046875 -1.375 4.8125 -1.375q3.671875 0 6.046875 2.96875l0 -2.5l3.25 0l0 17.9375q0 4.84375 -1.0 6.859375q-0.984375 2.03125 -3.125 3.203125q-2.125 1.171875 -5.25 1.171875q-3.71875 0 -6.0 -1.671875q-2.28125 -1.671875 -2.203125 -5.03125zm2.90625 -12.46875q0 4.09375 1.609375 5.96875q1.625 1.875 4.078125 1.875q2.421875 0 4.0625 -1.859375q1.640625 -1.875 1.640625 -5.859375q0 -3.8125 -1.703125 -5.734375q-1.6875 -1.9375 -4.0625 -1.9375q-2.34375 0 -3.984375 1.90625q-1.640625 1.890625 -1.640625 5.640625z" fill-rule="nonzero"/><path fill="#ffffff" d="m7.3779526 77.51181l0 0c0 -38.477287 31.192005 -69.66929 69.66929 -69.66929l0 0c18.477448 0 36.198105 7.3401365 49.263634 20.405663c13.065529 13.065527 20.405663 30.786184 20.405663 49.263626l0 0c0 38.477287 -31.192009 69.6693 -69.6693 69.6693l0 0c-38.477283 0 -69.66929 -31.192009 -69.66929 -69.6693z" fill-rule="evenodd"/><path stroke="#000000" stroke-width="3.0" stroke-linejoin="round" stroke-linecap="butt" d="m7.3779526 77.51181l0 0c0 -38.477287 31.192005 -69.66929 69.66929 -69.66929l0 0c18.477448 0 36.198105 7.3401365 49.263634 20.405663c13.065529 13.065527 20.405663 30.786184 20.405663 49.263626l0 0c0 38.477287 -31.192009 69.6693 -69.6693 69.6693l0 0c-38.477283 0 -69.66929 -31.192009 -69.66929 -69.6693z" fill-rule="evenodd"/><path fill="#000000" d="m31.724287 54.85027l22.661417 0l0 -22.661415l45.322838 0l0 22.661415l22.661415 0l0 45.322834l-22.661415 0l0 22.661423l-45.322838 0l0 -22.661423l-22.661417 0z" fill-rule="evenodd"/><path stroke="#000000" stroke-width="3.0" stroke-linejoin="round" stroke-linecap="butt" d="m31.724287 54.85027l22.661417 0l0 -22.661415l45.322838 0l0 22.661415l22.661415 0l0 45.322834l-22.661415 0l0 22.661423l-45.322838 0l0 -22.661423l-22.661417 0z" fill-rule="evenodd"/><path fill="#ffffff" d="m36.239105 78.26072l0 0c-1.0155602 -1.0905151 -0.95479584 -2.7978287 0.1357193 -3.813385l34.450226 -32.082302c0.52368164 -0.48768997 1.2196503 -0.7473717 1.9347992 -0.7219162c0.7151489 0.02545166 1.3908997 0.33395386 1.8785858 0.8576393l7.355118 7.8979797c1.015564 1.090519 0.95479584 2.7978325 -0.1357193 3.8133926l-34.450222 32.0823c-1.0905151 1.0155563 -2.7978287 0.95479584 -3.8133888 -0.1357193z" fill-rule="evenodd"/><path stroke="#000000" stroke-width="2.0" stroke-linejoin="round" stroke-linecap="butt" d="m36.239105 78.26072l0 0c-1.0155602 -1.0905151 -0.95479584 -2.7978287 0.1357193 -3.813385l34.450226 -32.082302c0.52368164 -0.48768997 1.2196503 -0.7473717 1.9347992 -0.7219162c0.7151489 0.02545166 1.3908997 0.33395386 1.8785858 0.8576393l7.355118 7.8979797c1.015564 1.090519 0.95479584 2.7978325 -0.1357193 3.8133926l-34.450222 32.0823c-1.0905151 1.0155563 -2.7978287 0.95479584 -3.8133888 -0.1357193z" fill-rule="evenodd"/><path fill="#ffffff" d="m49.22637 66.16613l0 0c-1.0155602 -1.0905151 -0.95479584 -2.7978287 0.13572311 -3.8133888l8.474201 -7.891735l0 0c0.52368546 -0.48768616 1.2196541 -0.74736786 1.934803 -0.7219162c0.7151489 0.02545166 1.3908997 0.33395386 1.8785858 0.8576393l7.3551216 7.8979836c1.0155563 1.0905151 0.95479584 2.7978287 -0.1357193 3.813385l-8.474205 7.8917313c-1.090519 1.015564 -2.7978325 0.95480347 -3.8133926 -0.1357193z" fill-rule="evenodd"/><path stroke="#000000" stroke-width="2.0" stroke-linejoin="round" stroke-linecap="butt" d="m49.22637 66.16613l0 0c-1.0155602 -1.0905151 -0.95479584 -2.7978287 0.13572311 -3.8133888l8.474201 -7.891735l0 0c0.52368546 -0.48768616 1.2196541 -0.74736786 1.934803 -0.7219162c0.7151489 0.02545166 1.3908997 0.33395386 1.8785858 0.8576393l7.3551216 7.8979836c1.0155563 1.0905151 0.95479584 2.7978287 -0.1357193 3.813385l-8.474205 7.8917313c-1.090519 1.015564 -2.7978325 0.95480347 -3.8133926 -0.1357193z" fill-rule="evenodd"/><path fill="#000000" d="m52.28941 64.68063l0 0c-0.32007217 -0.3436966 -0.3009224 -0.88179016 0.042778015 -1.2018623l0 0c0.16504669 -0.1537056 0.3843956 -0.23554611 0.609787 -0.22752762c0.2253952 0.008022308 0.43836975 0.10525513 0.59207153 0.27030182l0 0c0.320076 0.3436966 0.3009224 0.88179016 -0.0427742 1.2018585l0 0c-0.3436966 0.320076 -0.88178635 0.3009262 -1.2018623 -0.042770386z" fill-rule="evenodd"/><path stroke="#000000" stroke-width="1.0" stroke-linejoin="round" stroke-linecap="butt" d="m52.28941 64.68063l0 0c-0.32007217 -0.3436966 -0.3009224 -0.88179016 0.042778015 -1.2018623l0 0c0.16504669 -0.1537056 0.3843956 -0.23554611 0.609787 -0.22752762c0.2253952 0.008022308 0.43836975 0.10525513 0.59207153 0.27030182l0 0c0.320076 0.3436966 0.3009224 0.88179016 -0.0427742 1.2018585l0 0c-0.3436966 0.320076 -0.88178635 0.3009262 -1.2018623 -0.042770386z" fill-rule="evenodd"/><path fill="#000000" d="m55.28372 67.89594l0 0c-0.32007217 -0.3436966 -0.3009224 -0.88179016 0.0427742 -1.2018585l0 0c0.1650505 -0.15370941 0.3843994 -0.23554993 0.6097908 -0.22753143c0.22539139 0.008026123 0.43836594 0.10525513 0.59207153 0.27030182l0 0c0.32007217 0.3436966 0.3009224 0.88179016 -0.0427742 1.2018661l0 0c-0.3436966 0.32006836 -0.88179016 0.30091858 -1.2018623 -0.042778015z" fill-rule="evenodd"/><path stroke="#000000" stroke-width="1.0" stroke-linejoin="round" stroke-linecap="butt" d="m55.28372 67.89594l0 0c-0.32007217 -0.3436966 -0.3009224 -0.88179016 0.0427742 -1.2018585l0 0c0.1650505 -0.15370941 0.3843994 -0.23554993 0.6097908 -0.22753143c0.22539139 0.008026123 0.43836594 0.10525513 0.59207153 0.27030182l0 0c0.32007217 0.3436966 0.3009224 0.88179016 -0.0427742 1.2018661l0 0c-0.3436966 0.32006836 -0.88179016 0.30091858 -1.2018623 -0.042778015z" fill-rule="evenodd"/><path fill="#000000" d="m58.278027 71.11125l0 0c-0.320076 -0.3436966 -0.3009224 -0.88179016 0.0427742 -1.2018585l0 0c0.16504669 -0.15370941 0.3843956 -0.23554993 0.6097908 -0.22753143c0.22539139 0.008026123 0.43836594 0.10525513 0.59207153 0.27030182l0 0c0.32007217 0.3436966 0.30091858 0.88179016 -0.042778015 1.2018661l0 0c-0.3436966 0.32006836 -0.88178635 0.30091858 -1.2018585 -0.042778015z" fill-rule="evenodd"/><path stroke="#000000" stroke-width="1.0" stroke-linejoin="round" stroke-linecap="butt" d="m58.278027 71.11125l0 0c-0.320076 -0.3436966 -0.3009224 -0.88179016 0.0427742 -1.2018585l0 0c0.16504669 -0.15370941 0.3843956 -0.23554993 0.6097908 -0.22753143c0.22539139 0.008026123 0.43836594 0.10525513 0.59207153 0.27030182l0 0c0.32007217 0.3436966 0.30091858 0.88179016 -0.042778015 1.2018661l0 0c-0.3436966 0.32006836 -0.88178635 0.30091858 -1.2018585 -0.042778015z" fill-rule="evenodd"/><path fill="#000000" d="m55.49704 61.69348l0 0c-0.320076 -0.3436966 -0.3009224 -0.88179016 0.0427742 -1.2018623l0 0c0.16504669 -0.1537056 0.3843956 -0.23554611 0.6097908 -0.22752762c0.22539139 0.008022308 0.43836594 0.10525513 0.59207153 0.27030182l0 0c0.32007217 0.3436966 0.30091858 0.88179016 -0.042778015 1.2018623l0 0c-0.3436966 0.32007217 -0.88178635 0.3009224 -1.2018585 -0.0427742z" fill-rule="evenodd"/><path stroke="#000000" stroke-width="1.0" stroke-linejoin="round" stroke-linecap="butt" d="m55.49704 61.69348l0 0c-0.320076 -0.3436966 -0.3009224 -0.88179016 0.0427742 -1.2018623l0 0c0.16504669 -0.1537056 0.3843956 -0.23554611 0.6097908 -0.22752762c0.22539139 0.008022308 0.43836594 0.10525513 0.59207153 0.27030182l0 0c0.32007217 0.3436966 0.30091858 0.88179016 -0.042778015 1.2018623l0 0c-0.3436966 0.32007217 -0.88178635 0.3009224 -1.2018585 -0.0427742z" fill-rule="evenodd"/><path fill="#000000" d="m58.491344 64.90879l0 0c-0.32007217 -0.3436966 -0.3009224 -0.88179016 0.0427742 -1.2018623l0 0c0.1650505 -0.15370178 0.3843994 -0.23554611 0.6097908 -0.2275238c0.22539139 0.008022308 0.43836594 0.10525131 0.59207153 0.270298l0 0c0.32007217 0.3436966 0.3009224 0.88179016 -0.0427742 1.2018661l0 0c-0.3436966 0.32006836 -0.88179016 0.30091858 -1.2018623 -0.042778015z" fill-rule="evenodd"/><path stroke="#000000" stroke-width="1.0" stroke-linejoin="round" stroke-linecap="butt" d="m58.491344 64.90879l0 0c-0.32007217 -0.3436966 -0.3009224 -0.88179016 0.0427742 -1.2018623l0 0c0.1650505 -0.15370178 0.3843994 -0.23554611 0.6097908 -0.2275238c0.22539139 0.008022308 0.43836594 0.10525131 0.59207153 0.270298l0 0c0.32007217 0.3436966 0.3009224 0.88179016 -0.0427742 1.2018661l0 0c-0.3436966 0.32006836 -0.88179016 0.30091858 -1.2018623 -0.042778015z" fill-rule="evenodd"/><path fill="#000000" d="m61.485653 68.1241l0 0c-0.32007217 -0.3436966 -0.3009224 -0.88179016 0.0427742 -1.2018585l0 0c0.1650505 -0.15370941 0.3843956 -0.23554993 0.6097908 -0.22753143c0.22539139 0.008026123 0.43836594 0.10525513 0.59207153 0.27030182l0 0c0.32007217 0.3436966 0.3009224 0.88179016 -0.0427742 1.2018661l0 0c-0.3436966 0.32006836 -0.88179016 0.30091858 -1.2018623 -0.042778015z" fill-rule="evenodd"/><path stroke="#000000" stroke-width="1.0" stroke-linejoin="round" stroke-linecap="butt" d="m61.485653 68.1241l0 0c-0.32007217 -0.3436966 -0.3009224 -0.88179016 0.0427742 -1.2018585l0 0c0.1650505 -0.15370941 0.3843956 -0.23554993 0.6097908 -0.22753143c0.22539139 0.008026123 0.43836594 0.10525513 0.59207153 0.27030182l0 0c0.32007217 0.3436966 0.3009224 0.88179016 -0.0427742 1.2018661l0 0c-0.3436966 0.32006836 -0.88179016 0.30091858 -1.2018623 -0.042778015z" fill-rule="evenodd"/><path fill="#000000" d="m58.70377 58.705368l0 0c-0.32007217 -0.3436966 -0.30091858 -0.88179016 0.042778015 -1.2018623l0 0c0.16504669 -0.15370178 0.3843956 -0.23554611 0.609787 -0.2275238c0.2253952 0.008018494 0.43836975 0.10525131 0.59207153 0.270298l0 0c0.320076 0.3436966 0.3009224 0.88179016 -0.0427742 1.2018623l0 0c-0.3436966 0.32007217 -0.88178635 0.3009224 -1.2018623 -0.0427742z" fill-rule="evenodd"/><path stroke="#000000" stroke-width="1.0" stroke-linejoin="round" stroke-linecap="butt" d="m58.70377 58.705368l0 0c-0.32007217 -0.3436966 -0.30091858 -0.88179016 0.042778015 -1.2018623l0 0c0.16504669 -0.15370178 0.3843956 -0.23554611 0.609787 -0.2275238c0.2253952 0.008018494 0.43836975 0.10525131 0.59207153 0.270298l0 0c0.320076 0.3436966 0.3009224 0.88179016 -0.0427742 1.2018623l0 0c-0.3436966 0.32007217 -0.88178635 0.3009224 -1.2018623 -0.0427742z" fill-rule="evenodd"/><path fill="#000000" d="m61.69808 61.920677l0 0c-0.32007217 -0.3436966 -0.3009224 -0.88178635 0.0427742 -1.2018585l0 0c0.1650505 -0.1537056 0.3843994 -0.23554993 0.6097908 -0.22752762c0.22539139 0.008022308 0.43836594 0.10525131 0.59207153 0.27030182l0 0c0.32007217 0.3436966 0.3009224 0.88178635 -0.0427742 1.2018585l0 0c-0.3436966 0.320076 -0.88179016 0.3009224 -1.2018623 -0.0427742z" fill-rule="evenodd"/><path stroke="#000000" stroke-width="1.0" stroke-linejoin="round" stroke-linecap="butt" d="m61.69808 61.920677l0 0c-0.32007217 -0.3436966 -0.3009224 -0.88178635 0.0427742 -1.2018585l0 0c0.1650505 -0.1537056 0.3843994 -0.23554993 0.6097908 -0.22752762c0.22539139 0.008022308 0.43836594 0.10525131 0.59207153 0.27030182l0 0c0.32007217 0.3436966 0.3009224 0.88178635 -0.0427742 1.2018585l0 0c-0.3436966 0.320076 -0.88179016 0.3009224 -1.2018623 -0.0427742z" fill-rule="evenodd"/><path fill="#000000" d="m64.69238 65.13599l0 0c-0.32006836 -0.3436966 -0.30091858 -0.88178253 0.042778015 -1.2018585l0 0c0.16504669 -0.1537056 0.3843994 -0.23554993 0.609787 -0.22752762c0.2253952 0.008022308 0.43836975 0.10525131 0.59207153 0.27030182l0 0c0.320076 0.3437004 0.3009262 0.88178635 -0.042770386 1.2018623l0 0c-0.3436966 0.32006836 -0.88179016 0.30091858 -1.2018661 -0.042778015z" fill-rule="evenodd"/><path stroke="#000000" stroke-width="1.0" stroke-linejoin="round" stroke-linecap="butt" d="m64.69238 65.13599l0 0c-0.32006836 -0.3436966 -0.30091858 -0.88178253 0.042778015 -1.2018585l0 0c0.16504669 -0.1537056 0.3843994 -0.23554993 0.609787 -0.22752762c0.2253952 0.008022308 0.43836975 0.10525131 0.59207153 0.27030182l0 0c0.320076 0.3437004 0.3009262 0.88178635 -0.042770386 1.2018623l0 0c-0.3436966 0.32006836 -0.88179016 0.30091858 -1.2018661 -0.042778015z" fill-rule="evenodd"/><path fill="#ffffff" d="m114.67979 196.11055l0 0c0 -8.541016 6.9238663 -15.464874 15.464882 -15.464874l382.07812 0c4.1015625 0 8.035095 1.6293182 10.935303 4.5295563c2.9002686 2.9002228 4.529602 6.8337708 4.529602 10.935318l0 61.85765c0 8.541016 -6.923889 15.464874 -15.464905 15.464874l-382.07812 0c-8.541016 0 -15.464882 -6.9238586 -15.464882 -15.464874z" fill-rule="evenodd"/><path stroke="#000000" stroke-width="3.0" stroke-linejoin="round" stroke-linecap="butt" d="m114.67979 196.11055l0 0c0 -8.541016 6.9238663 -15.464874 15.464882 -15.464874l382.07812 0c4.1015625 0 8.035095 1.6293182 10.935303 4.5295563c2.9002686 2.9002228 4.529602 6.8337708 4.529602 10.935318l0 61.85765c0 8.541016 -6.923889 15.464874 -15.464905 15.464874l-382.07812 0c-8.541016 0 -15.464882 -6.9238586 -15.464882 -15.464874z" fill-rule="evenodd"/><path fill="#000000" fill-opacity="0.0" d="m163.97113 209.03937l308.56693 0l0 36.0l-308.56693 0z" fill-rule="evenodd"/><path fill="#000000" d="m175.93988 241.43936l0 -28.640625l5.703125 0l6.78125 20.28125q0.9375 2.828125 1.359375 4.234375q0.5 -1.5625 1.53125 -4.59375l6.859375 -19.921875l5.09375 0l0 28.640625l-3.65625 0l0 -23.96875l-8.3125 23.96875l-3.421875 0l-8.28125 -24.375l0 24.375l-3.65625 0zm31.679688 -10.375q0 -5.765625 3.203125 -8.53125q2.671875 -2.3125 6.53125 -2.3125q4.265625 0 6.984375 2.8125q2.71875 2.796875 2.71875 7.734375q0 4.015625 -1.203125 6.3125q-1.203125 2.28125 -3.5 3.5625q-2.296875 1.265625 -5.0 1.265625q-4.359375 0 -7.046875 -2.796875q-2.6875 -2.796875 -2.6875 -8.046875zm3.609375 0q0 3.984375 1.734375 5.96875q1.75 1.984375 4.390625 1.984375q2.609375 0 4.34375 -1.984375q1.75 -2.0 1.75 -6.078125q0 -3.859375 -1.75 -5.828125q-1.75 -1.984375 -4.34375 -1.984375q-2.640625 0 -4.390625 1.96875q-1.734375 1.96875 -1.734375 5.953125zm19.949219 10.375l0 -20.75l3.15625 0l0 2.953125q2.296875 -3.421875 6.609375 -3.421875q1.875 0 3.4375 0.6875q1.578125 0.671875 2.359375 1.765625q0.78125 1.09375 1.09375 2.59375q0.203125 0.96875 0.203125 3.421875l0 12.75l-3.515625 0l0 -12.625q0 -2.140625 -0.421875 -3.203125q-0.40625 -1.0625 -1.453125 -1.703125q-1.046875 -0.640625 -2.453125 -0.640625q-2.234375 0 -3.875 1.4375q-1.625 1.421875 -1.625 5.40625l0 11.328125l-3.515625 0zm22.261719 -24.59375l0 -4.046875l3.515625 0l0 4.046875l-3.515625 0zm0 24.59375l0 -20.75l3.515625 0l0 20.75l-3.515625 0zm16.542969 -3.140625l0.515625 3.09375q-1.484375 0.328125 -2.65625 0.328125q-1.921875 0 -2.984375 -0.609375q-1.046875 -0.609375 -1.484375 -1.59375q-0.421875 -0.984375 -0.421875 -4.15625l0 -11.9375l-2.578125 0l0 -2.734375l2.578125 0l0 -5.125l3.5 -2.109375l0 7.234375l3.53125 0l0 2.734375l-3.53125 0l0 12.140625q0 1.5 0.1875 1.9375q0.1875 0.421875 0.59375 0.671875q0.421875 0.25 1.203125 0.25q0.59375 0 1.546875 -0.125zm2.1289062 -7.234375q0 -5.765625 3.203125 -8.53125q2.671875 -2.3125 6.53125 -2.3125q4.265625 0 6.984375 2.8125q2.71875 2.796875 2.71875 7.734375q0 4.015625 -1.203125 6.3125q-1.203125 2.28125 -3.5 3.5625q-2.296875 1.265625 -5.0 1.265625q-4.359375 0 -7.046875 -2.796875q-2.6875 -2.796875 -2.6875 -8.046875zm3.609375 0q0 3.984375 1.734375 5.96875q1.75 1.984375 4.390625 1.984375q2.609375 0 4.34375 -1.984375q1.75 -2.0 1.75 -6.078125q0 -3.859375 -1.75 -5.828125q-1.75 -1.984375 -4.34375 -1.984375q-2.640625 0 -4.390625 1.96875q-1.734375 1.96875 -1.734375 5.953125zm19.902344 10.375l0 -20.75l3.171875 0l0 3.15625q1.203125 -2.21875 2.234375 -2.921875q1.03125 -0.703125 2.25 -0.703125q1.78125 0 3.625 1.140625l-1.21875 3.265625q-1.28125 -0.765625 -2.578125 -0.765625q-1.15625 0 -2.078125 0.703125q-0.90625 0.6875 -1.296875 1.90625q-0.59375 1.875 -0.59375 4.109375l0 10.859375l-3.515625 0zm13.3828125 -24.59375l0 -4.046875l3.515625 0l0 4.046875l-3.515625 0zm0 24.59375l0 -20.75l3.515625 0l0 20.75l-3.515625 0zm8.871094 0l0 -20.75l3.15625 0l0 2.953125q2.296875 -3.421875 6.609375 -3.421875q1.875 0 3.4375 0.6875q1.578125 0.671875 2.359375 1.765625q0.78125 1.09375 1.09375 2.59375q0.203125 0.96875 0.203125 3.421875l0 12.75l-3.515625 0l0 -12.625q0 -2.140625 -0.421875 -3.203125q-0.40625 -1.0625 -1.453125 -1.703125q-1.046875 -0.640625 -2.453125 -0.640625q-2.234375 0 -3.875 1.4375q-1.625 1.421875 -1.625 5.40625l0 11.328125l-3.515625 0zm21.605469 1.71875l3.40625 0.515625q0.21875 1.578125 1.203125 2.296875q1.296875 0.984375 3.5625 0.984375q2.453125 0 3.78125 -0.984375q1.328125 -0.96875 1.796875 -2.734375q0.265625 -1.078125 0.25 -4.515625q-2.3125 2.71875 -5.75 2.71875q-4.265625 0 -6.609375 -3.078125q-2.34375 -3.09375 -2.34375 -7.40625q0 -2.96875 1.0625 -5.484375q1.078125 -2.515625 3.109375 -3.875q2.046875 -1.375 4.8125 -1.375q3.671875 0 6.046875 2.96875l0 -2.5l3.25 0l0 17.9375q0 4.84375 -1.0 6.859375q-0.984375 2.03125 -3.125 3.203125q-2.125 1.171875 -5.25 1.171875q-3.71875 0 -6.0 -1.671875q-2.28125 -1.671875 -2.203125 -5.03125zm2.90625 -12.46875q0 4.09375 1.609375 5.96875q1.625 1.875 4.078125 1.875q2.421875 0 4.0625 -1.859375q1.640625 -1.875 1.640625 -5.859375q0 -3.8125 -1.703125 -5.734375q-1.6875 -1.9375 -4.0625 -1.9375q-2.34375 0 -3.984375 1.90625q-1.640625 1.890625 -1.640625 5.640625z" fill-rule="nonzero"/><path fill="#ffffff" d="m7.3779526 227.03937l0 0c0 -38.47728 31.192005 -69.6693 69.66929 -69.6693l0 0c18.477448 0 36.198105 7.340149 49.263634 20.40567c13.065529 13.065521 20.405663 30.786179 20.405663 49.263626l0 0c0 38.477295 -31.192009 69.66928 -69.6693 69.66928l0 0c-38.477283 0 -69.66929 -31.191986 -69.66929 -69.66928z" fill-rule="evenodd"/><path stroke="#000000" stroke-width="3.0" stroke-linejoin="round" stroke-linecap="butt" d="m7.3779526 227.03937l0 0c0 -38.47728 31.192005 -69.6693 69.66929 -69.6693l0 0c18.477448 0 36.198105 7.340149 49.263634 20.40567c13.065529 13.065521 20.405663 30.786179 20.405663 49.263626l0 0c0 38.477295 -31.192009 69.66928 -69.6693 69.66928l0 0c-38.477283 0 -69.66929 -31.191986 -69.66929 -69.66928z" fill-rule="evenodd"/><path fill="#000000" d="m77.04724 210.96765c21.45623 -54.810226 105.13553 0 0 70.470276c-105.13553 -70.470276 -21.456226 -125.2805 0 -70.470276z" fill-rule="evenodd"/><path stroke="#000000" stroke-width="1.0" stroke-linejoin="round" stroke-linecap="butt" d="m77.04724 210.96765c21.45623 -54.810226 105.13553 0 0 70.470276c-105.13553 -70.470276 -21.456226 -125.2805 0 -70.470276z" fill-rule="evenodd"/><path fill="#ffffff" d="m83.24969 209.73415c-0.5896301 0 -1.1476135 0.46435547 -1.2134628 0.99069214l-8.081604 40.19594l0 -26.422455c0 -0.56225586 -0.35103607 -1.0543976 -0.9838486 -1.1946411c-0.057296753 -0.0072631836 -0.114593506 -0.010681152 -0.17146301 -0.010681152c-0.50154114 0 -0.9744415 0.27149963 -1.1634293 0.7131958l-6.0437775 13.211655l-30.14706 0c-0.70293427 0 -1.2647705 0.5618286 -1.2647705 1.1946411c0 0.7024994 0.56183624 1.2647705 1.2647705 1.2647705l30.990665 0c0.49171448 0 0.91329956 -0.2809143 1.1240997 -0.7029419l3.935402 -8.713562l0 33.168747c0 0.63238525 0.49170685 1.1946411 1.1245193 1.2651978l0.14025116 0c0.56225586 0 1.0543976 -0.4220276 1.1946411 -0.9838562l8.011482 -40.196365l0 29.303879c0 0.63238525 0.49171448 1.124527 1.0539703 1.2647705c0.053451538 0.0059814453 0.1064682 0.008972168 0.15863037 0.008972168c0.56611633 0 1.053978 -0.343338 1.2468109 -0.9222717l4.075653 -13.492569l30.217606 0c0.70293427 0 1.1946487 -0.5622711 1.1946487 -1.2647705c0 -0.6328125 -0.49171448 -1.1946411 -1.1946487 -1.1946411l-31.201462 0c-0.49170685 0 -0.9834213 0.35102844 -1.1946411 0.84317017l-1.827034 6.324692l0 -33.37996c0 -0.63238525 -0.49170685 -1.1946411 -1.1240921 -1.2647552c-0.040618896 -0.004714966 -0.08166504 -0.0068511963 -0.12185669 -0.0068511963z" fill-rule="evenodd"/><path fill="#ffffff" d="m114.67979 345.6381l0 0c0 -8.541016 6.9238663 -15.464874 15.464882 -15.464874l382.07812 0c4.1015625 0 8.035095 1.6293335 10.935303 4.5295715c2.9002686 2.900238 4.529602 6.8337708 4.529602 10.935303l0 61.857666c0 8.541016 -6.923889 15.464874 -15.464905 15.464874l-382.07812 0c-8.541016 0 -15.464882 -6.9238586 -15.464882 -15.464874z" fill-rule="evenodd"/><path stroke="#000000" stroke-width="3.0" stroke-linejoin="round" stroke-linecap="butt" d="m114.67979 345.6381l0 0c0 -8.541016 6.9238663 -15.464874 15.464882 -15.464874l382.07812 0c4.1015625 0 8.035095 1.6293335 10.935303 4.5295715c2.9002686 2.900238 4.529602 6.8337708 4.529602 10.935303l0 61.857666c0 8.541016 -6.923889 15.464874 -15.464905 15.464874l-382.07812 0c-8.541016 0 -15.464882 -6.9238586 -15.464882 -15.464874z" fill-rule="evenodd"/><path fill="#000000" fill-opacity="0.0" d="m163.97113 358.56693l357.85828 0l0 36.0l-357.85828 0z" fill-rule="evenodd"/><path fill="#000000" d="m176.11176 390.96692l0 -28.640625l12.703125 0q3.828125 0 5.8125 0.78125q2.0 0.765625 3.1875 2.71875q1.1875 1.953125 1.1875 4.3125q0 3.046875 -1.96875 5.140625q-1.96875 2.09375 -6.09375 2.65625q1.5 0.71875 2.28125 1.421875q1.671875 1.53125 3.15625 3.8125l4.96875 7.796875l-4.765625 0l-3.78125 -5.953125q-1.65625 -2.578125 -2.734375 -3.9375q-1.078125 -1.375 -1.9375 -1.921875q-0.84375 -0.546875 -1.71875 -0.765625q-0.640625 -0.140625 -2.109375 -0.140625l-4.390625 0l0 12.71875l-3.796875 0zm3.796875 -16.0l8.140625 0q2.59375 0 4.0625 -0.53125q1.46875 -0.546875 2.21875 -1.71875q0.765625 -1.1875 0.765625 -2.578125q0 -2.03125 -1.46875 -3.328125q-1.46875 -1.3125 -4.65625 -1.3125l-9.0625 0l0 9.46875zm38.121094 13.4375q-1.953125 1.65625 -3.765625 2.34375q-1.796875 0.6875 -3.875 0.6875q-3.40625 0 -5.25 -1.671875q-1.828125 -1.671875 -1.828125 -4.265625q0 -1.53125 0.6875 -2.78125q0.6875 -1.265625 1.8125 -2.015625q1.125 -0.765625 2.53125 -1.15625q1.03125 -0.28125 3.125 -0.53125q4.265625 -0.515625 6.265625 -1.21875q0.03125 -0.71875 0.03125 -0.90625q0 -2.15625 -1.0 -3.03125q-1.34375 -1.1875 -4.0 -1.1875q-2.484375 0 -3.671875 0.875q-1.171875 0.859375 -1.75 3.0625l-3.4375 -0.46875q0.46875 -2.203125 1.546875 -3.5625q1.078125 -1.359375 3.109375 -2.09375q2.03125 -0.734375 4.703125 -0.734375q2.65625 0 4.3125 0.625q1.671875 0.625 2.453125 1.578125q0.78125 0.953125 1.09375 2.390625q0.171875 0.90625 0.171875 3.25l0 4.6875q0 4.890625 0.21875 6.203125q0.234375 1.296875 0.890625 2.484375l-3.671875 0q-0.546875 -1.09375 -0.703125 -2.5625zm-0.296875 -7.84375q-1.90625 0.78125 -5.734375 1.328125q-2.171875 0.3125 -3.078125 0.703125q-0.890625 0.390625 -1.375 1.140625q-0.484375 0.75 -0.484375 1.671875q0 1.40625 1.0625 2.34375q1.0625 0.9375 3.109375 0.9375q2.03125 0 3.609375 -0.890625q1.59375 -0.890625 2.328125 -2.4375q0.5625 -1.1875 0.5625 -3.515625l0 -1.28125zm9.011719 18.359375l0 -28.703125l3.203125 0l0 2.703125q1.125 -1.578125 2.546875 -2.375q1.4375 -0.796875 3.46875 -0.796875q2.65625 0 4.6875 1.375q2.03125 1.359375 3.0625 3.859375q1.03125 2.484375 1.03125 5.453125q0 3.1875 -1.140625 5.734375q-1.140625 2.546875 -3.328125 3.90625q-2.171875 1.359375 -4.5625 1.359375q-1.765625 0 -3.171875 -0.734375q-1.390625 -0.75 -2.28125 -1.890625l0 10.109375l-3.515625 0zm3.1875 -18.203125q0 4.0 1.609375 5.921875q1.625 1.90625 3.9375 1.90625q2.34375 0 4.0 -1.984375q1.671875 -1.984375 1.671875 -6.140625q0 -3.96875 -1.625 -5.9375q-1.625 -1.96875 -3.890625 -1.96875q-2.25 0 -3.984375 2.09375q-1.71875 2.09375 -1.71875 6.109375zm19.074219 -14.34375l0 -4.046875l3.515625 0l0 4.046875l-3.515625 0zm0 24.59375l0 -20.75l3.515625 0l0 20.75l-3.515625 0zm22.324219 0l0 -2.625q-1.96875 3.09375 -5.796875 3.09375q-2.484375 0 -4.5625 -1.359375q-2.078125 -1.375 -3.21875 -3.828125q-1.140625 -2.453125 -1.140625 -5.640625q0 -3.09375 1.03125 -5.625q1.03125 -2.53125 3.09375 -3.875q2.078125 -1.359375 4.640625 -1.359375q1.875 0 3.328125 0.796875q1.46875 0.796875 2.390625 2.0625l0 -10.28125l3.5 0l0 28.640625l-3.265625 0zm-11.109375 -10.359375q0 3.984375 1.671875 5.96875q1.6875 1.96875 3.96875 1.96875q2.3125 0 3.921875 -1.875q1.609375 -1.890625 1.609375 -5.765625q0 -4.25 -1.640625 -6.234375q-1.640625 -2.0 -4.046875 -2.0q-2.34375 0 -3.921875 1.921875q-1.5625 1.90625 -1.5625 6.015625zm31.46875 10.359375l0 -28.640625l9.859375 0q3.34375 0 5.09375 0.421875q2.46875 0.5625 4.203125 2.046875q2.265625 1.90625 3.390625 4.890625q1.125 2.984375 1.125 6.8125q0 3.25 -0.765625 5.78125q-0.765625 2.515625 -1.953125 4.171875q-1.1875 1.640625 -2.609375 2.59375q-1.421875 0.9375 -3.421875 1.4375q-2.0 0.484375 -4.59375 0.484375l-10.328125 0zm3.78125 -3.375l6.109375 0q2.84375 0 4.453125 -0.53125q1.609375 -0.53125 2.5625 -1.484375q1.34375 -1.34375 2.09375 -3.625q0.765625 -2.28125 0.765625 -5.515625q0 -4.5 -1.484375 -6.90625q-1.46875 -2.40625 -3.578125 -3.234375q-1.53125 -0.578125 -4.90625 -0.578125l-6.015625 0l0 21.875zm38.85547 -3.3125l3.625 0.453125q-0.859375 3.1875 -3.1875 4.953125q-2.3125 1.75 -5.9375 1.75q-4.546875 0 -7.21875 -2.796875q-2.65625 -2.8125 -2.65625 -7.875q0 -5.234375 2.6875 -8.125q2.703125 -2.890625 7.0 -2.890625q4.15625 0 6.796875 2.84375q2.640625 2.828125 2.640625 7.96875q0 0.3125 -0.03125 0.9375l-15.46875 0q0.203125 3.40625 1.9375 5.234375q1.734375 1.8125 4.34375 1.8125q1.921875 0 3.28125 -1.015625q1.375 -1.015625 2.1875 -3.25zm-11.546875 -5.671875l11.578125 0q-0.234375 -2.625 -1.328125 -3.9375q-1.671875 -2.03125 -4.359375 -2.03125q-2.421875 0 -4.078125 1.625q-1.640625 1.625 -1.8125 4.34375zm19.589844 20.3125l0 -28.703125l3.203125 0l0 2.703125q1.125 -1.578125 2.546875 -2.375q1.4375 -0.796875 3.46875 -0.796875q2.65625 0 4.6875 1.375q2.03125 1.359375 3.0625 3.859375q1.03125 2.484375 1.03125 5.453125q0 3.1875 -1.140625 5.734375q-1.140625 2.546875 -3.328125 3.90625q-2.171875 1.359375 -4.5625 1.359375q-1.765625 0 -3.171875 -0.734375q-1.390625 -0.75 -2.28125 -1.890625l0 10.109375l-3.515625 0zm3.1875 -18.203125q0 4.0 1.609375 5.921875q1.625 1.90625 3.9375 1.90625q2.34375 0 4.0 -1.984375q1.671875 -1.984375 1.671875 -6.140625q0 -3.96875 -1.625 -5.9375q-1.625 -1.96875 -3.890625 -1.96875q-2.25 0 -3.984375 2.09375q-1.71875 2.09375 -1.71875 6.109375zm18.980469 10.25l0 -28.640625l3.515625 0l0 28.640625l-3.515625 0zm7.6523438 -10.375q0 -5.765625 3.203125 -8.53125q2.671875 -2.3125 6.53125 -2.3125q4.265625 0 6.984375 2.8125q2.71875 2.796875 2.71875 7.734375q0 4.015625 -1.203125 6.3125q-1.203125 2.28125 -3.5 3.5625q-2.296875 1.265625 -5.0 1.265625q-4.359375 0 -7.046875 -2.796875q-2.6875 -2.796875 -2.6875 -8.046875zm3.609375 0q0 3.984375 1.734375 5.96875q1.75 1.984375 4.390625 1.984375q2.609375 0 4.34375 -1.984375q1.75 -2.0 1.75 -6.078125q0 -3.859375 -1.75 -5.828125q-1.75 -1.984375 -4.34375 -1.984375q-2.640625 0 -4.390625 1.96875q-1.734375 1.96875 -1.734375 5.953125zm19.792969 18.359375l-0.390625 -3.296875q1.15625 0.3125 2.015625 0.3125q1.171875 0 1.875 -0.390625q0.703125 -0.390625 1.140625 -1.09375q0.34375 -0.53125 1.078125 -2.609375q0.09375 -0.296875 0.3125 -0.859375l-7.875 -20.796875l3.796875 0l4.3125 12.015625q0.84375 2.28125 1.5 4.8125q0.609375 -2.421875 1.453125 -4.734375l4.4375 -12.09375l3.515625 0l-7.890625 21.109375q-1.28125 3.40625 -1.984375 4.703125q-0.9375 1.734375 -2.15625 2.546875q-1.203125 0.8125 -2.875 0.8125q-1.015625 0 -2.265625 -0.4375zm20.15625 -7.984375l0 -20.75l3.140625 0l0 2.921875q0.984375 -1.53125 2.59375 -2.453125q1.625 -0.9375 3.703125 -0.9375q2.296875 0 3.765625 0.96875q1.484375 0.953125 2.09375 2.671875q2.453125 -3.640625 6.40625 -3.640625q3.078125 0 4.734375 1.71875q1.671875 1.703125 1.671875 5.265625l0 14.234375l-3.5 0l0 -13.0625q0 -2.109375 -0.34375 -3.03125q-0.34375 -0.9375 -1.25 -1.5q-0.890625 -0.578125 -2.09375 -0.578125q-2.1875 0 -3.640625 1.46875q-1.4375 1.453125 -1.4375 4.65625l0 12.046875l-3.515625 0l0 -13.484375q0 -2.34375 -0.859375 -3.515625q-0.859375 -1.171875 -2.8125 -1.171875q-1.484375 0 -2.75 0.78125q-1.265625 0.78125 -1.828125 2.296875q-0.5625 1.5 -0.5625 4.328125l0 10.765625l-3.515625 0zm47.523438 -6.6875l3.625 0.453125q-0.859375 3.1875 -3.1875 4.953125q-2.3125 1.75 -5.9375 1.75q-4.546875 0 -7.21875 -2.796875q-2.65625 -2.8125 -2.65625 -7.875q0 -5.234375 2.6875 -8.125q2.703125 -2.890625 7.0 -2.890625q4.15625 0 6.796875 2.84375q2.640625 2.828125 2.640625 7.96875q0 0.3125 -0.03125 0.9375l-15.46875 0q0.203125 3.40625 1.9375 5.234375q1.734375 1.8125 4.34375 1.8125q1.921875 0 3.28125 -1.015625q1.375 -1.015625 2.1875 -3.25zm-11.546875 -5.671875l11.578125 0q-0.234375 -2.625 -1.328125 -3.9375q-1.671875 -2.03125 -4.359375 -2.03125q-2.421875 0 -4.078125 1.625q-1.640625 1.625 -1.8125 4.34375zm19.589844 12.359375l0 -20.75l3.15625 0l0 2.953125q2.296875 -3.421875 6.609375 -3.421875q1.875 0 3.4375 0.6875q1.578125 0.671875 2.359375 1.765625q0.78125 1.09375 1.09375 2.59375q0.203125 0.96875 0.203125 3.421875l0 12.75l-3.515625 0l0 -12.625q0 -2.140625 -0.421875 -3.203125q-0.40625 -1.0625 -1.453125 -1.703125q-1.046875 -0.640625 -2.453125 -0.640625q-2.234375 0 -3.875 1.4375q-1.625 1.421875 -1.625 5.40625l0 11.328125l-3.515625 0zm29.917969 -3.140625l0.515625 3.09375q-1.484375 0.328125 -2.65625 0.328125q-1.921875 0 -2.984375 -0.609375q-1.046875 -0.609375 -1.484375 -1.59375q-0.421875 -0.984375 -0.421875 -4.15625l0 -11.9375l-2.578125 0l0 -2.734375l2.578125 0l0 -5.125l3.5 -2.109375l0 7.234375l3.53125 0l0 2.734375l-3.53125 0l0 12.140625q0 1.5 0.1875 1.9375q0.1875 0.421875 0.59375 0.671875q0.421875 0.25 1.203125 0.25q0.59375 0 1.546875 -0.125z" fill-rule="nonzero"/><path fill="#ffffff" d="m7.3779526 376.56693l0 0c0 -38.477295 31.192005 -69.66928 69.66929 -69.66928l0 0c18.477448 0 36.198105 7.3401184 49.263634 20.40567c13.065529 13.065521 20.405663 30.786163 20.405663 49.26361l0 0c0 38.477295 -31.192009 69.66928 -69.6693 69.66928l0 0c-38.477283 0 -69.66929 -31.191986 -69.66929 -69.66928z" fill-rule="evenodd"/><path stroke="#000000" stroke-width="3.0" stroke-linejoin="round" stroke-linecap="butt" d="m7.3779526 376.56693l0 0c0 -38.477295 31.192005 -69.66928 69.66929 -69.66928l0 0c18.477448 0 36.198105 7.3401184 49.263634 20.40567c13.065529 13.065521 20.405663 30.786163 20.405663 49.26361l0 0c0 38.477295 -31.192009 69.66928 -69.6693 69.66928l0 0c-38.477283 0 -69.66929 -31.191986 -69.66929 -69.66928z" fill-rule="evenodd"/><path fill="#000000" d="m90.955246 407.60455l46.682495 -31.656647l-46.682495 -31.656647z" fill-rule="evenodd"/><path stroke="#000000" stroke-width="1.0" stroke-linejoin="round" stroke-linecap="butt" d="m90.955246 407.60455l46.682495 -31.656647l-46.682495 -31.656647z" fill-rule="evenodd"/><path fill="#000000" d="m32.45674 407.60455l46.682503 -31.656647l-46.682503 -31.656647z" fill-rule="evenodd"/><path stroke="#000000" stroke-width="1.0" stroke-linejoin="round" stroke-linecap="butt" d="m32.45674 407.60455l46.682503 -31.656647l-46.682503 -31.656647z" fill-rule="evenodd"/><path fill="#ffffff" d="m114.67979 495.16565l0 0c0 -8.541016 6.9238663 -15.464874 15.464882 -15.464874l382.07812 0c4.1015625 0 8.035095 1.6293335 10.935303 4.5295715c2.9002686 2.900238 4.529602 6.8337708 4.529602 10.935303l0 61.857666c0 8.541016 -6.923889 15.464844 -15.464905 15.464844l-382.07812 0c-8.541016 0 -15.464882 -6.923828 -15.464882 -15.464844z" fill-rule="evenodd"/><path stroke="#000000" stroke-width="3.0" stroke-linejoin="round" stroke-linecap="butt" d="m114.67979 495.16565l0 0c0 -8.541016 6.9238663 -15.464874 15.464882 -15.464874l382.07812 0c4.1015625 0 8.035095 1.6293335 10.935303 4.5295715c2.9002686 2.900238 4.529602 6.8337708 4.529602 10.935303l0 61.857666c0 8.541016 -6.923889 15.464844 -15.464905 15.464844l-382.07812 0c-8.541016 0 -15.464882 -6.923828 -15.464882 -15.464844z" fill-rule="evenodd"/><path fill="#000000" fill-opacity="0.0" d="m163.97113 508.09448l308.56693 0l0 36.0l-308.56693 0z" fill-rule="evenodd"/><path fill="#000000" d="m174.90863 526.5414q0 -7.125 3.828125 -11.15625q3.828125 -4.0312805 9.875 -4.0312805q3.96875 0 7.15625 1.8906555q3.1875 1.890625 4.84375 5.28125q1.671875 3.390625 1.671875 7.6875q0 4.359375 -1.765625 7.796875q-1.75 3.4375 -4.96875 5.203125q-3.21875 1.765625 -6.953125 1.765625q-4.046875 0 -7.234375 -1.953125q-3.171875 -1.953125 -4.8125 -5.328125q-1.640625 -3.375 -1.640625 -7.15625zm3.90625 0.0625q0 5.171875 2.78125 8.15625q2.78125 2.984375 6.984375 2.984375q4.28125 0 7.03125 -3.0q2.765625 -3.015625 2.765625 -8.546875q0 -3.5 -1.1875 -6.109375q-1.171875 -2.609375 -3.453125 -4.03125q-2.265625 -1.4375 -5.09375 -1.4375q-4.03125 0 -6.9375 2.765625q-2.890625 2.75 -2.890625 9.21875zm27.910156 21.84375l0 -28.703125l3.203125 0l0 2.703125q1.125 -1.578125 2.546875 -2.375q1.4375 -0.796875 3.46875 -0.796875q2.65625 0 4.6875 1.375q2.03125 1.359375 3.0625 3.859375q1.03125 2.484375 1.03125 5.453125q0 3.1875 -1.140625 5.734375q-1.140625 2.546875 -3.328125 3.90625q-2.171875 1.359375 -4.5625 1.359375q-1.765625 0 -3.171875 -0.734375q-1.390625 -0.75 -2.28125 -1.890625l0 10.109375l-3.515625 0zm3.1875 -18.203125q0 4.0 1.609375 5.921875q1.625 1.90625 3.9375 1.90625q2.34375 0 4.0 -1.984375q1.671875 -1.984375 1.671875 -6.140625q0 -3.96875 -1.625 -5.9375q-1.625 -1.96875 -3.890625 -1.96875q-2.25 0 -3.984375 2.09375q-1.71875 2.09375 -1.71875 6.109375zm26.730469 7.109375l0.515625 3.09375q-1.484375 0.328125 -2.65625 0.328125q-1.921875 0 -2.984375 -0.609375q-1.046875 -0.609375 -1.484375 -1.59375q-0.421875 -0.984375 -0.421875 -4.15625l0 -11.9375l-2.578125 0l0 -2.734375l2.578125 0l0 -5.125l3.5 -2.109375l0 7.234375l3.53125 0l0 2.734375l-3.53125 0l0 12.140625q0 1.5 0.1875 1.9375q0.1875 0.421875 0.59375 0.671875q0.421875 0.25 1.203125 0.25q0.59375 0 1.546875 -0.125zm3.4570312 -21.453125l0 -4.0469055l3.515625 0l0 4.0469055l-3.515625 0zm0 24.59375l0 -20.75l3.515625 0l0 20.75l-3.515625 0zm8.871094 0l0 -20.75l3.140625 0l0 2.921875q0.984375 -1.53125 2.59375 -2.453125q1.625 -0.9375 3.703125 -0.9375q2.296875 0 3.765625 0.96875q1.484375 0.953125 2.09375 2.671875q2.453125 -3.640625 6.40625 -3.640625q3.078125 0 4.734375 1.71875q1.671875 1.703125 1.671875 5.265625l0 14.234375l-3.5 0l0 -13.0625q0 -2.109375 -0.34375 -3.03125q-0.34375 -0.9375 -1.25 -1.5q-0.890625 -0.578125 -2.09375 -0.578125q-2.1875 0 -3.640625 1.46875q-1.4375 1.453125 -1.4375 4.65625l0 12.046875l-3.515625 0l0 -13.484375q0 -2.34375 -0.859375 -3.515625q-0.859375 -1.171875 -2.8125 -1.171875q-1.484375 0 -2.75 0.78125q-1.265625 0.78125 -1.828125 2.296875q-0.5625 1.5 -0.5625 4.328125l0 10.765625l-3.515625 0zm33.335938 -24.59375l0 -4.0469055l3.515625 0l0 4.0469055l-3.515625 0zm0 24.59375l0 -20.75l3.515625 0l0 20.75l-3.515625 0zm7.0117188 0l0 -2.859375l13.203125 -15.15625q-2.25 0.125 -3.96875 0.125l-8.453125 0l0 -2.859375l16.953125 0l0 2.328125l-11.234375 13.171875l-2.15625 2.390625q2.359375 -0.171875 4.421875 -0.171875l9.59375 0l0 3.03125l-18.359375 0zm35.390625 -2.5625q-1.953125 1.65625 -3.765625 2.34375q-1.796875 0.6875 -3.875 0.6875q-3.40625 0 -5.25 -1.671875q-1.828125 -1.671875 -1.828125 -4.265625q0 -1.53125 0.6875 -2.78125q0.6875 -1.265625 1.8125 -2.015625q1.125 -0.765625 2.53125 -1.15625q1.03125 -0.28125 3.125 -0.53125q4.265625 -0.515625 6.265625 -1.21875q0.03125 -0.71875 0.03125 -0.90625q0 -2.15625 -1.0 -3.03125q-1.34375 -1.1875 -4.0 -1.1875q-2.484375 0 -3.671875 0.875q-1.171875 0.859375 -1.75 3.0625l-3.4375 -0.46875q0.46875 -2.203125 1.546875 -3.5625q1.078125 -1.359375 3.109375 -2.09375q2.03125 -0.734375 4.703125 -0.734375q2.65625 0 4.3125 0.625q1.671875 0.625 2.453125 1.578125q0.78125 0.953125 1.09375 2.390625q0.171875 0.90625 0.171875 3.25l0 4.6875q0 4.890625 0.21875 6.203125q0.234375 1.296875 0.890625 2.484375l-3.671875 0q-0.546875 -1.09375 -0.703125 -2.5625zm-0.296875 -7.84375q-1.90625 0.78125 -5.734375 1.328125q-2.171875 0.3125 -3.078125 0.703125q-0.890625 0.390625 -1.375 1.140625q-0.484375 0.75 -0.484375 1.671875q0 1.40625 1.0625 2.34375q1.0625 0.9375 3.109375 0.9375q2.03125 0 3.609375 -0.890625q1.59375 -0.890625 2.328125 -2.4375q0.5625 -1.1875 0.5625 -3.515625l0 -1.28125zm16.683594 7.265625l0.515625 3.09375q-1.484375 0.328125 -2.65625 0.328125q-1.921875 0 -2.984375 -0.609375q-1.046875 -0.609375 -1.484375 -1.59375q-0.421875 -0.984375 -0.421875 -4.15625l0 -11.9375l-2.578125 0l0 -2.734375l2.578125 0l0 -5.125l3.5 -2.109375l0 7.234375l3.53125 0l0 2.734375l-3.53125 0l0 12.140625q0 1.5 0.1875 1.9375q0.1875 0.421875 0.59375 0.671875q0.421875 0.25 1.203125 0.25q0.59375 0 1.546875 -0.125zm3.4570312 -21.453125l0 -4.0469055l3.515625 0l0 4.0469055l-3.515625 0zm0 24.59375l0 -20.75l3.515625 0l0 20.75l-3.515625 0zm7.5585938 -10.375q0 -5.765625 3.203125 -8.53125q2.671875 -2.3125 6.53125 -2.3125q4.265625 0 6.984375 2.8125q2.71875 2.796875 2.71875 7.734375q0 4.015625 -1.203125 6.3125q-1.203125 2.28125 -3.5 3.5625q-2.296875 1.265625 -5.0 1.265625q-4.359375 0 -7.046875 -2.796875q-2.6875 -2.796875 -2.6875 -8.046875zm3.609375 0q0 3.984375 1.734375 5.96875q1.75 1.984375 4.390625 1.984375q2.609375 0 4.34375 -1.984375q1.75 -2.0 1.75 -6.078125q0 -3.859375 -1.75 -5.828125q-1.75 -1.984375 -4.34375 -1.984375q-2.640625 0 -4.390625 1.96875q-1.734375 1.96875 -1.734375 5.953125zm19.949219 10.375l0 -20.75l3.15625 0l0 2.953125q2.296875 -3.421875 6.609375 -3.421875q1.875 0 3.4375 0.6875q1.578125 0.671875 2.359375 1.765625q0.78125 1.09375 1.09375 2.59375q0.203125 0.96875 0.203125 3.421875l0 12.75l-3.515625 0l0 -12.625q0 -2.140625 -0.421875 -3.203125q-0.40625 -1.0625 -1.453125 -1.703125q-1.046875 -0.640625 -2.453125 -0.640625q-2.234375 0 -3.875 1.4375q-1.625 1.421875 -1.625 5.40625l0 11.328125l-3.515625 0z" fill-rule="nonzero"/><path fill="#ffffff" d="m7.3779526 526.0945l0 0c0 -38.477295 31.192005 -69.66928 69.66929 -69.66928l0 0c18.477448 0 36.198105 7.3401184 49.263634 20.40567c13.065529 13.065521 20.405663 30.786163 20.405663 49.26361l0 0c0 38.477295 -31.192009 69.66931 -69.6693 69.66931l0 0c-38.477283 0 -69.66929 -31.192017 -69.66929 -69.66931z" fill-rule="evenodd"/><path stroke="#000000" stroke-width="3.0" stroke-linejoin="round" stroke-linecap="butt" d="m7.3779526 526.0945l0 0c0 -38.477295 31.192005 -69.66928 69.66929 -69.66928l0 0c18.477448 0 36.198105 7.3401184 49.263634 20.40567c13.065529 13.065521 20.405663 30.786163 20.405663 49.26361l0 0c0 38.477295 -31.192009 69.66931 -69.6693 69.66931l0 0c-38.477283 0 -69.66929 -31.192017 -69.66929 -69.66931z" fill-rule="evenodd"/><path fill="#000000" d="m61.006634 491.3348l0 0c1.1018944 0 1.9951591 0.8932495 1.9951591 1.9951477l0 7.9804077l0 0c0 0.5291443 -0.21020508 1.0366211 -0.58436966 1.4107971c-0.37416458 0.3741455 -0.8816414 0.5843506 -1.4107895 0.5843506l-7.980404 0c-1.1018944 0 -1.9951591 -0.8932495 -1.9951591 -1.9951477l0 -7.9804077c0 -1.1018982 0.8932648 -1.9951477 1.9951591 -1.9951477z" fill-rule="evenodd"/><path stroke="#000000" stroke-width="1.0" stroke-linejoin="round" stroke-linecap="butt" d="m61.006634 491.3348l0 0c1.1018944 0 1.9951591 0.8932495 1.9951591 1.9951477l0 7.9804077l0 0c0 0.5291443 -0.21020508 1.0366211 -0.58436966 1.4107971c-0.37416458 0.3741455 -0.8816414 0.5843506 -1.4107895 0.5843506l-7.980404 0c-1.1018944 0 -1.9951591 -0.8932495 -1.9951591 -1.9951477l0 -7.9804077c0 -1.1018982 0.8932648 -1.9951477 1.9951591 -1.9951477z" fill-rule="evenodd"/><path fill="#000000" d="m47.263065 491.3348l0 0c1.1018944 0 1.9951591 0.8932495 1.9951591 1.9951477l0 7.9804077l0 0c0 0.5291443 -0.21020508 1.0366211 -0.58436966 1.4107971c-0.37416458 0.3741455 -0.8816414 0.5843506 -1.4107895 0.5843506l-7.980404 0c-1.1018944 0 -1.9951591 -0.8932495 -1.9951591 -1.9951477l0 -7.9804077c0 -1.1018982 0.8932648 -1.9951477 1.9951591 -1.9951477z" fill-rule="evenodd"/><path stroke="#000000" stroke-width="1.0" stroke-linejoin="round" stroke-linecap="butt" d="m47.263065 491.3348l0 0c1.1018944 0 1.9951591 0.8932495 1.9951591 1.9951477l0 7.9804077l0 0c0 0.5291443 -0.21020508 1.0366211 -0.58436966 1.4107971c-0.37416458 0.3741455 -0.8816414 0.5843506 -1.4107895 0.5843506l-7.980404 0c-1.1018944 0 -1.9951591 -0.8932495 -1.9951591 -1.9951477l0 -7.9804077c0 -1.1018982 0.8932648 -1.9951477 1.9951591 -1.9951477z" fill-rule="evenodd"/><path fill="#000000" d="m33.519493 491.3348l0 0c1.1018982 0 1.995163 0.8932495 1.995163 1.9951477l0 7.9804077l0 0c0 0.5291443 -0.21020508 1.0366211 -0.58436966 1.4107971c-0.37416458 0.3741455 -0.8816414 0.5843506 -1.4107933 0.5843506l-7.9804 0c-1.1018963 0 -1.9951591 -0.8932495 -1.9951591 -1.9951477l0 -7.9804077c0 -1.1018982 0.89326286 -1.9951477 1.9951591 -1.9951477z" fill-rule="evenodd"/><path stroke="#000000" stroke-width="1.0" stroke-linejoin="round" stroke-linecap="butt" d="m33.519493 491.3348l0 0c1.1018982 0 1.995163 0.8932495 1.995163 1.9951477l0 7.9804077l0 0c0 0.5291443 -0.21020508 1.0366211 -0.58436966 1.4107971c-0.37416458 0.3741455 -0.8816414 0.5843506 -1.4107933 0.5843506l-7.9804 0c-1.1018963 0 -1.9951591 -0.8932495 -1.9951591 -1.9951477l0 -7.9804077c0 -1.1018982 0.89326286 -1.9951477 1.9951591 -1.9951477z" fill-rule="evenodd"/><path fill="#000000" d="m33.519493 505.07837l0 0c1.1018982 0 1.995163 0.89328 1.995163 1.9951782l0 7.9804077l0 0c0 0.52911377 -0.21020508 1.0366211 -0.58436966 1.4107666c-0.37416458 0.3741455 -0.8816414 0.5843506 -1.4107933 0.5843506l-7.9804 0c-1.1018963 0 -1.9951591 -0.8932495 -1.9951591 -1.9951172l0 -7.9804077c0 -1.1018982 0.89326286 -1.9951782 1.9951591 -1.9951782z" fill-rule="evenodd"/><path stroke="#000000" stroke-width="1.0" stroke-linejoin="round" stroke-linecap="butt" d="m33.519493 505.07837l0 0c1.1018982 0 1.995163 0.89328 1.995163 1.9951782l0 7.9804077l0 0c0 0.52911377 -0.21020508 1.0366211 -0.58436966 1.4107666c-0.37416458 0.3741455 -0.8816414 0.5843506 -1.4107933 0.5843506l-7.9804 0c-1.1018963 0 -1.9951591 -0.8932495 -1.9951591 -1.9951172l0 -7.9804077c0 -1.1018982 0.89326286 -1.9951782 1.9951591 -1.9951782z" fill-rule="evenodd"/><path fill="#000000" d="m23.555515 554.9161l0 0c0 -1.1019287 0.89326286 -1.9951782 1.9951591 -1.9951782l7.9804 0l0 0c0.5291519 0 1.0366287 0.21020508 1.4107933 0.5843506c0.37416458 0.3741455 0.58436966 0.88165283 0.58436966 1.4108276l0 7.9803467c0 1.1019287 -0.8932648 1.9951782 -1.995163 1.9951782l-7.9804 0c-1.1018963 0 -1.9951591 -0.8932495 -1.9951591 -1.9951782z" fill-rule="evenodd"/><path stroke="#000000" stroke-width="1.0" stroke-linejoin="round" stroke-linecap="butt" d="m23.555515 554.9161l0 0c0 -1.1019287 0.89326286 -1.9951782 1.9951591 -1.9951782l7.9804 0l0 0c0.5291519 0 1.0366287 0.21020508 1.4107933 0.5843506c0.37416458 0.3741455 0.58436966 0.88165283 0.58436966 1.4108276l0 7.9803467c0 1.1019287 -0.8932648 1.9951782 -1.995163 1.9951782l-7.9804 0c-1.1018963 0 -1.9951591 -0.8932495 -1.9951591 -1.9951782z" fill-rule="evenodd"/><path fill="#000000" d="m37.299084 554.9161l0 0c0 -1.1019287 0.8932648 -1.9951782 1.9951591 -1.9951782l7.980404 0l0 0c0.5291481 0 1.0366249 0.21020508 1.4107895 0.5843506c0.37416458 0.3741455 0.58436966 0.88165283 0.58436966 1.4108276l0 7.9803467c0 1.1019287 -0.8932648 1.9951782 -1.9951591 1.9951782l-7.980404 0c-1.1018944 0 -1.9951591 -0.8932495 -1.9951591 -1.9951782z" fill-rule="evenodd"/><path stroke="#000000" stroke-width="1.0" stroke-linejoin="round" stroke-linecap="butt" d="m37.299084 554.9161l0 0c0 -1.1019287 0.8932648 -1.9951782 1.9951591 -1.9951782l7.980404 0l0 0c0.5291481 0 1.0366249 0.21020508 1.4107895 0.5843506c0.37416458 0.3741455 0.58436966 0.88165283 0.58436966 1.4108276l0 7.9803467c0 1.1019287 -0.8932648 1.9951782 -1.9951591 1.9951782l-7.980404 0c-1.1018944 0 -1.9951591 -0.8932495 -1.9951591 -1.9951782z" fill-rule="evenodd"/><path fill="#000000" d="m51.042652 554.9161l0 0c0 -1.1019287 0.8932648 -1.9951782 1.9951591 -1.9951782l7.980404 0l0 0c0.5291481 0 1.0366249 0.21020508 1.4107895 0.5843506c0.37416458 0.3741455 0.58436966 0.88165283 0.58436966 1.4108276l0 7.9803467c0 1.1019287 -0.8932648 1.9951782 -1.9951591 1.9951782l-7.980404 0c-1.1018944 0 -1.9951591 -0.8932495 -1.9951591 -1.9951782z" fill-rule="evenodd"/><path stroke="#000000" stroke-width="1.0" stroke-linejoin="round" stroke-linecap="butt" d="m51.042652 554.9161l0 0c0 -1.1019287 0.8932648 -1.9951782 1.9951591 -1.9951782l7.980404 0l0 0c0.5291481 0 1.0366249 0.21020508 1.4107895 0.5843506c0.37416458 0.3741455 0.58436966 0.88165283 0.58436966 1.4108276l0 7.9803467c0 1.1019287 -0.8932648 1.9951782 -1.9951591 1.9951782l-7.980404 0c-1.1018944 0 -1.9951591 -0.8932495 -1.9951591 -1.9951782z" fill-rule="evenodd"/><path fill="#000000" d="m37.299084 541.4392l0 0c0 -1.1018677 0.8932648 -1.9951782 1.9951591 -1.9951782l7.980404 0l0 0c0.5291481 0 1.0366249 0.21020508 1.4107895 0.5844116c0.37416458 0.3741455 0.58436966 0.8815918 0.58436966 1.4107666l0 7.9804077c0 1.1018677 -0.8932648 1.9951782 -1.9951591 1.9951782l-7.980404 0c-1.1018944 0 -1.9951591 -0.89331055 -1.9951591 -1.9951782z" fill-rule="evenodd"/><path stroke="#000000" stroke-width="1.0" stroke-linejoin="round" stroke-linecap="butt" d="m37.299084 541.4392l0 0c0 -1.1018677 0.8932648 -1.9951782 1.9951591 -1.9951782l7.980404 0l0 0c0.5291481 0 1.0366249 0.21020508 1.4107895 0.5844116c0.37416458 0.3741455 0.58436966 0.8815918 0.58436966 1.4107666l0 7.9804077c0 1.1018677 -0.8932648 1.9951782 -1.9951591 1.9951782l-7.980404 0c-1.1018944 0 -1.9951591 -0.89331055 -1.9951591 -1.9951782z" fill-rule="evenodd"/><path fill="#000000" d="m78.52909 527.4289l0 0c0 -1.1019287 0.89325714 -1.9951782 1.9951553 -1.9951782l7.9804 0l0 0c0.5291519 0 1.0366287 0.21020508 1.4107971 0.5843506c0.37416077 0.37420654 0.58436584 0.88165283 0.58436584 1.4108276l0 7.9804077c0 1.1018677 -0.8932648 1.9951172 -1.995163 1.9951172l-7.9804 0c-1.1018982 0 -1.9951553 -0.8932495 -1.9951553 -1.9951172z" fill-rule="evenodd"/><path stroke="#000000" stroke-width="1.0" stroke-linejoin="round" stroke-linecap="butt" d="m78.52909 527.4289l0 0c0 -1.1019287 0.89325714 -1.9951782 1.9951553 -1.9951782l7.9804 0l0 0c0.5291519 0 1.0366287 0.21020508 1.4107971 0.5843506c0.37416077 0.37420654 0.58436584 0.88165283 0.58436584 1.4108276l0 7.9804077c0 1.1018677 -0.8932648 1.9951172 -1.995163 1.9951172l-7.9804 0c-1.1018982 0 -1.9951553 -0.8932495 -1.9951553 -1.9951172z" fill-rule="evenodd"/><path fill="#000000" d="m78.52909 541.1725l0 0c0 -1.1019287 0.89325714 -1.9951782 1.9951553 -1.9951782l7.9804 0l0 0c0.5291519 0 1.0366287 0.21020508 1.4107971 0.5843506c0.37416077 0.3741455 0.58436584 0.88165283 0.58436584 1.4108276l0 7.9803467c0 1.1019287 -0.8932648 1.9951782 -1.995163 1.9951782l-7.9804 0c-1.1018982 0 -1.9951553 -0.8932495 -1.9951553 -1.9951782z" fill-rule="evenodd"/><path stroke="#000000" stroke-width="1.0" stroke-linejoin="round" stroke-linecap="butt" d="m78.52909 541.1725l0 0c0 -1.1019287 0.89325714 -1.9951782 1.9951553 -1.9951782l7.9804 0l0 0c0.5291519 0 1.0366287 0.21020508 1.4107971 0.5843506c0.37416077 0.3741455 0.58436584 0.88165283 0.58436584 1.4108276l0 7.9803467c0 1.1019287 -0.8932648 1.9951782 -1.995163 1.9951782l-7.9804 0c-1.1018982 0 -1.9951553 -0.8932495 -1.9951553 -1.9951782z" fill-rule="evenodd"/><path fill="#000000" d="m78.52909 554.916l0 0c0 -1.1018677 0.89325714 -1.9951782 1.9951553 -1.9951782l7.9804 0l0 0c0.5291519 0 1.0366287 0.21020508 1.4107971 0.5844116c0.37416077 0.3741455 0.58436584 0.88165283 0.58436584 1.4107666l0 7.9804077c0 1.1019287 -0.8932648 1.9951782 -1.995163 1.9951782l-7.9804 0c-1.1018982 0 -1.9951553 -0.8932495 -1.9951553 -1.9951782z" fill-rule="evenodd"/><path stroke="#000000" stroke-width="1.0" stroke-linejoin="round" stroke-linecap="butt" d="m78.52909 554.916l0 0c0 -1.1018677 0.89325714 -1.9951782 1.9951553 -1.9951782l7.9804 0l0 0c0.5291519 0 1.0366287 0.21020508 1.4107971 0.5844116c0.37416077 0.3741455 0.58436584 0.88165283 0.58436584 1.4107666l0 7.9804077c0 1.1019287 -0.8932648 1.9951782 -1.995163 1.9951782l-7.9804 0c-1.1018982 0 -1.9951553 -0.8932495 -1.9951553 -1.9951782z" fill-rule="evenodd"/><path fill="#000000" d="m78.52909 513.6853l0 0c0 -1.1018677 0.89325714 -1.9951477 1.9951553 -1.9951477l7.9804 0l0 0c0.5291519 0 1.0366287 0.21020508 1.4107971 0.5843811c0.37416077 0.3741455 0.58436584 0.88165283 0.58436584 1.4107666l0 7.9804077c0 1.1019287 -0.8932648 1.9951782 -1.995163 1.9951782l-7.9804 0c-1.1018982 0 -1.9951553 -0.8932495 -1.9951553 -1.9951782z" fill-rule="evenodd"/><path stroke="#000000" stroke-width="1.0" stroke-linejoin="round" stroke-linecap="butt" d="m78.52909 513.6853l0 0c0 -1.1018677 0.89325714 -1.9951477 1.9951553 -1.9951477l7.9804 0l0 0c0.5291519 0 1.0366287 0.21020508 1.4107971 0.5843811c0.37416077 0.3741455 0.58436584 0.88165283 0.58436584 1.4107666l0 7.9804077c0 1.1019287 -0.8932648 1.9951782 -1.995163 1.9951782l-7.9804 0c-1.1018982 0 -1.9951553 -0.8932495 -1.9951553 -1.9951782z" fill-rule="evenodd"/><path fill="#000000" d="m119.75762 541.1717l0 0c0 -1.1018677 0.8932648 -1.9951782 1.995163 -1.9951782l7.9804 0l0 0c0.5291443 0 1.0366211 0.21020508 1.4107971 0.5844116c0.37416077 0.3741455 0.58436584 0.88165283 0.58436584 1.4107666l0 7.9804077c0 1.1018677 -0.8932648 1.9951782 -1.995163 1.9951782l-7.9804 0c-1.1018982 0 -1.995163 -0.89331055 -1.995163 -1.9951782z" fill-rule="evenodd"/><path stroke="#000000" stroke-width="1.0" stroke-linejoin="round" stroke-linecap="butt" d="m119.75762 541.1717l0 0c0 -1.1018677 0.8932648 -1.9951782 1.995163 -1.9951782l7.9804 0l0 0c0.5291443 0 1.0366211 0.21020508 1.4107971 0.5844116c0.37416077 0.3741455 0.58436584 0.88165283 0.58436584 1.4107666l0 7.9804077c0 1.1018677 -0.8932648 1.9951782 -1.995163 1.9951782l-7.9804 0c-1.1018982 0 -1.995163 -0.89331055 -1.995163 -1.9951782z" fill-rule="evenodd"/><path fill="#000000" d="m106.01405 541.1717l0 0c0 -1.1018677 0.8932648 -1.9951782 1.995163 -1.9951782l7.9804 0l0 0c0.5291519 0 1.0366287 0.21020508 1.4107895 0.5844116c0.3741684 0.3741455 0.5843735 0.88165283 0.5843735 1.4107666l0 7.9804077c0 1.1018677 -0.8932648 1.9951782 -1.995163 1.9951782l-7.9804 0c-1.1018982 0 -1.995163 -0.89331055 -1.995163 -1.9951782z" fill-rule="evenodd"/><path stroke="#000000" stroke-width="1.0" stroke-linejoin="round" stroke-linecap="butt" d="m106.01405 541.1717l0 0c0 -1.1018677 0.8932648 -1.9951782 1.995163 -1.9951782l7.9804 0l0 0c0.5291519 0 1.0366287 0.21020508 1.4107895 0.5844116c0.3741684 0.3741455 0.5843735 0.88165283 0.5843735 1.4107666l0 7.9804077c0 1.1018677 -0.8932648 1.9951782 -1.995163 1.9951782l-7.9804 0c-1.1018982 0 -1.995163 -0.89331055 -1.995163 -1.9951782z" fill-rule="evenodd"/><path fill="#000000" d="m106.01405 554.9153l0 0c0 -1.1019287 0.8932648 -1.9951782 1.995163 -1.9951782l7.9804 0l0 0c0.5291519 0 1.0366287 0.21020508 1.4107895 0.5843506c0.3741684 0.37420654 0.5843735 0.88165283 0.5843735 1.4108276l0 7.9804077c0 1.1018677 -0.8932648 1.9951172 -1.995163 1.9951172l-7.9804 0c-1.1018982 0 -1.995163 -0.8932495 -1.995163 -1.9951172z" fill-rule="evenodd"/><path stroke="#000000" stroke-width="1.0" stroke-linejoin="round" stroke-linecap="butt" d="m106.01405 554.9153l0 0c0 -1.1019287 0.8932648 -1.9951782 1.995163 -1.9951782l7.9804 0l0 0c0.5291519 0 1.0366287 0.21020508 1.4107895 0.5843506c0.3741684 0.37420654 0.5843735 0.88165283 0.5843735 1.4108276l0 7.9804077c0 1.1018677 -0.8932648 1.9951172 -1.995163 1.9951172l-7.9804 0c-1.1018982 0 -1.995163 -0.8932495 -1.995163 -1.9951172z" fill-rule="evenodd"/><path fill="#000000" d="m119.75762 554.9153l0 0c0 -1.1019287 0.8932648 -1.9951782 1.995163 -1.9951782l7.9804 0l0 0c0.5291443 0 1.0366211 0.21020508 1.4107971 0.5843506c0.37416077 0.37420654 0.58436584 0.88165283 0.58436584 1.4108276l0 7.9804077c0 1.1018677 -0.8932648 1.9951172 -1.995163 1.9951172l-7.9804 0c-1.1018982 0 -1.995163 -0.8932495 -1.995163 -1.9951172z" fill-rule="evenodd"/><path stroke="#000000" stroke-width="1.0" stroke-linejoin="round" stroke-linecap="butt" d="m119.75762 554.9153l0 0c0 -1.1019287 0.8932648 -1.9951782 1.995163 -1.9951782l7.9804 0l0 0c0.5291443 0 1.0366211 0.21020508 1.4107971 0.5843506c0.37416077 0.37420654 0.58436584 0.88165283 0.58436584 1.4108276l0 7.9804077c0 1.1018677 -0.8932648 1.9951172 -1.995163 1.9951172l-7.9804 0c-1.1018982 0 -1.995163 -0.8932495 -1.995163 -1.9951172z" fill-rule="evenodd"/><path fill="#ffffff" d="m114.67979 644.69324l0 0c0 -8.541016 6.9238663 -15.464905 15.464882 -15.464905l382.07812 0c4.1015625 0 8.035095 1.6293335 10.935303 4.529541c2.9002686 2.9002686 4.529602 6.8338013 4.529602 10.935364l0 61.857605c0 8.541016 -6.923889 15.464905 -15.464905 15.464905l-382.07812 0c-8.541016 0 -15.464882 -6.923889 -15.464882 -15.464905z" fill-rule="evenodd"/><path stroke="#000000" stroke-width="3.0" stroke-linejoin="round" stroke-linecap="butt" d="m114.67979 644.69324l0 0c0 -8.541016 6.9238663 -15.464905 15.464882 -15.464905l382.07812 0c4.1015625 0 8.035095 1.6293335 10.935303 4.529541c2.9002686 2.9002686 4.529602 6.8338013 4.529602 10.935364l0 61.857605c0 8.541016 -6.923889 15.464905 -15.464905 15.464905l-382.07812 0c-8.541016 0 -15.464882 -6.923889 -15.464882 -15.464905z" fill-rule="evenodd"/><path fill="#000000" fill-opacity="0.0" d="m163.97113 657.6221l308.56693 0l0 36.0l-308.56693 0z" fill-rule="evenodd"/><path fill="#000000" d="m174.768 680.8189l3.578125 -0.3125q0.25 2.15625 1.171875 3.53125q0.9375 1.375 2.890625 2.234375q1.953125 0.84375 4.390625 0.84375q2.171875 0 3.828125 -0.640625q1.65625 -0.65625 2.46875 -1.78125q0.8125 -1.125 0.8125 -2.453125q0 -1.34375 -0.78125 -2.34375q-0.78125 -1.015625 -2.578125 -1.6875q-1.15625 -0.453125 -5.109375 -1.390625q-3.9375 -0.953125 -5.515625 -1.796875q-2.046875 -1.078125 -3.0625 -2.671875q-1.0 -1.59375 -1.0 -3.5625q0 -2.171875 1.234375 -4.046875q1.234375 -1.890625 3.59375 -2.859375q2.359375 -0.984375 5.25 -0.984375q3.1875 0 5.609375 1.03125q2.4375 1.015625 3.75 3.015625q1.3125 1.984375 1.40625 4.515625l-3.640625 0.265625q-0.28125 -2.71875 -1.984375 -4.09375q-1.6875 -1.390625 -4.984375 -1.390625q-3.4375 0 -5.015625 1.265625q-1.5625 1.25 -1.5625 3.03125q0 1.546875 1.109375 2.53125q1.09375 1.0 5.703125 2.046875q4.625 1.046875 6.34375 1.828125q2.5 1.15625 3.6875 2.921875q1.203125 1.765625 1.203125 4.0625q0 2.296875 -1.3125 4.3125q-1.3125 2.015625 -3.765625 3.140625q-2.4375 1.125 -5.515625 1.125q-3.875 0 -6.515625 -1.125q-2.625 -1.140625 -4.125 -3.40625q-1.484375 -2.28125 -1.5625 -5.15625zm41.054688 1.609375l3.453125 0.4375q-0.5625 3.578125 -2.90625 5.609375q-2.328125 2.015625 -5.71875 2.015625q-4.265625 0 -6.859375 -2.78125q-2.578125 -2.78125 -2.578125 -7.984375q0 -3.359375 1.109375 -5.875q1.125 -2.515625 3.390625 -3.78125q2.28125 -1.265625 4.953125 -1.265625q3.375 0 5.515625 1.71875q2.15625 1.703125 2.765625 4.84375l-3.421875 0.53125q-0.484375 -2.09375 -1.734375 -3.140625q-1.234375 -1.0625 -2.984375 -1.0625q-2.65625 0 -4.328125 1.90625q-1.65625 1.90625 -1.65625 6.03125q0 4.171875 1.59375 6.078125q1.609375 1.890625 4.1875 1.890625q2.078125 0 3.453125 -1.265625q1.390625 -1.28125 1.765625 -3.90625zm20.0 5.03125q-1.953125 1.65625 -3.765625 2.34375q-1.796875 0.6875 -3.875 0.6875q-3.40625 0 -5.25 -1.671875q-1.828125 -1.671875 -1.828125 -4.265625q0 -1.53125 0.6875 -2.78125q0.6875 -1.265625 1.8125 -2.015625q1.125 -0.765625 2.53125 -1.15625q1.03125 -0.28125 3.125 -0.53125q4.265625 -0.515625 6.265625 -1.21875q0.03125 -0.71875 0.03125 -0.90625q0 -2.15625 -1.0 -3.03125q-1.34375 -1.1875 -4.0 -1.1875q-2.484375 0 -3.671875 0.875q-1.171875 0.859375 -1.75 3.0625l-3.4375 -0.46875q0.46875 -2.203125 1.546875 -3.5625q1.078125 -1.359375 3.109375 -2.09375q2.03125 -0.734375 4.703125 -0.734375q2.65625 0 4.3125 0.625q1.671875 0.625 2.453125 1.578125q0.78125 0.953125 1.09375 2.390625q0.171875 0.90625 0.171875 3.25l0 4.6875q0 4.890625 0.21875 6.203125q0.234375 1.296875 0.890625 2.484375l-3.671875 0q-0.546875 -1.09375 -0.703125 -2.5625zm-0.296875 -7.84375q-1.90625 0.78125 -5.734375 1.328125q-2.171875 0.3125 -3.078125 0.703125q-0.890625 0.390625 -1.375 1.140625q-0.484375 0.75 -0.484375 1.671875q0 1.40625 1.0625 2.34375q1.0625 0.9375 3.109375 0.9375q2.03125 0 3.609375 -0.890625q1.59375 -0.890625 2.328125 -2.4375q0.5625 -1.1875 0.5625 -3.515625l0 -1.28125zm8.933594 10.40625l0 -28.640625l3.515625 0l0 28.640625l-3.515625 0zm8.980469 -24.59375l0 -4.046875l3.515625 0l0 4.046875l-3.515625 0zm0 24.59375l0 -20.75l3.515625 0l0 20.75l-3.515625 0zm8.871094 0l0 -20.75l3.15625 0l0 2.953125q2.296875 -3.421875 6.609375 -3.421875q1.875 0 3.4375 0.6875q1.578125 0.671875 2.359375 1.765625q0.78125 1.09375 1.09375 2.59375q0.203125 0.96875 0.203125 3.421875l0 12.75l-3.515625 0l0 -12.625q0 -2.140625 -0.421875 -3.203125q-0.40625 -1.0625 -1.453125 -1.703125q-1.046875 -0.640625 -2.453125 -0.640625q-2.234375 0 -3.875 1.4375q-1.625 1.421875 -1.625 5.40625l0 11.328125l-3.515625 0zm21.605469 1.71875l3.40625 0.515625q0.21875 1.578125 1.203125 2.296875q1.296875 0.984375 3.5625 0.984375q2.453125 0 3.78125 -0.984375q1.328125 -0.96875 1.796875 -2.734375q0.265625 -1.078125 0.25 -4.515625q-2.3125 2.71875 -5.75 2.71875q-4.265625 0 -6.609375 -3.078125q-2.34375 -3.09375 -2.34375 -7.40625q0 -2.96875 1.0625 -5.484375q1.078125 -2.515625 3.109375 -3.875q2.046875 -1.375 4.8125 -1.375q3.671875 0 6.046875 2.96875l0 -2.5l3.25 0l0 17.9375q0 4.84375 -1.0 6.859375q-0.984375 2.03125 -3.125 3.203125q-2.125 1.171875 -5.25 1.171875q-3.71875 0 -6.0 -1.671875q-2.28125 -1.671875 -2.203125 -5.03125zm2.90625 -12.46875q0 4.09375 1.609375 5.96875q1.625 1.875 4.078125 1.875q2.421875 0 4.0625 -1.859375q1.640625 -1.875 1.640625 -5.859375q0 -3.8125 -1.703125 -5.734375q-1.6875 -1.9375 -4.0625 -1.9375q-2.34375 0 -3.984375 1.90625q-1.640625 1.890625 -1.640625 5.640625z" fill-rule="nonzero"/><path fill="#ffffff" d="m7.3779526 675.6221l0 0c0 -38.477295 31.192005 -69.66931 69.66929 -69.66931l0 0c18.477448 0 36.198105 7.340149 49.263634 20.40564c13.065529 13.065552 20.405663 30.786194 20.405663 49.26367l0 0c0 38.477234 -31.192009 69.66925 -69.6693 69.66925l0 0c-38.477283 0 -69.66929 -31.192017 -69.66929 -69.66925z" fill-rule="evenodd"/><path stroke="#000000" stroke-width="3.0" stroke-linejoin="round" stroke-linecap="butt" d="m7.3779526 675.6221l0 0c0 -38.477295 31.192005 -69.66931 69.66929 -69.66931l0 0c18.477448 0 36.198105 7.340149 49.263634 20.40564c13.065529 13.065552 20.405663 30.786194 20.405663 49.26367l0 0c0 38.477234 -31.192009 69.66925 -69.6693 69.66925l0 0c-38.477283 0 -69.66929 -31.192017 -69.66929 -69.66925z" fill-rule="evenodd"/><path fill="#000000" d="m27.769217 703.384l0 0c0 -1.2683716 1.0282154 -2.2965698 2.2965794 -2.2965698l9.186043 0l0 0c0.6090889 0 1.1932335 0.24194336 1.6239281 0.67266846c0.43069077 0.43066406 0.6726494 1.0148315 0.6726494 1.6239014l0 9.186035c0 1.2683716 -1.0282135 2.2965698 -2.2965775 2.2965698l-9.186043 0c-1.268364 0 -2.2965794 -1.0281982 -2.2965794 -2.2965698z" fill-rule="evenodd"/><path stroke="#000000" stroke-width="1.0" stroke-linejoin="round" stroke-linecap="butt" d="m27.769217 703.384l0 0c0 -1.2683716 1.0282154 -2.2965698 2.2965794 -2.2965698l9.186043 0l0 0c0.6090889 0 1.1932335 0.24194336 1.6239281 0.67266846c0.43069077 0.43066406 0.6726494 1.0148315 0.6726494 1.6239014l0 9.186035c0 1.2683716 -1.0282135 2.2965698 -2.2965775 2.2965698l-9.186043 0c-1.268364 0 -2.2965794 -1.0281982 -2.2965794 -2.2965698z" fill-rule="evenodd"/><path fill="#000000" d="m44.724358 691.2732l0 0c0 -1.2683716 1.0282135 -2.2965698 2.2965813 -2.2965698l9.186039 0l0 0c0.6090927 0 1.1932335 0.24194336 1.6239281 0.67266846c0.43069077 0.43066406 0.6726532 1.0148315 0.6726532 1.6239014l0 21.310669c0 1.2683716 -1.0282135 2.2965698 -2.2965813 2.2965698l-9.186039 0c-1.2683678 0 -2.2965813 -1.0281982 -2.2965813 -2.2965698z" fill-rule="evenodd"/><path stroke="#000000" stroke-width="1.0" stroke-linejoin="round" stroke-linecap="butt" d="m44.724358 691.2732l0 0c0 -1.2683716 1.0282135 -2.2965698 2.2965813 -2.2965698l9.186039 0l0 0c0.6090927 0 1.1932335 0.24194336 1.6239281 0.67266846c0.43069077 0.43066406 0.6726532 1.0148315 0.6726532 1.6239014l0 21.310669c0 1.2683716 -1.0282135 2.2965698 -2.2965813 2.2965698l-9.186039 0c-1.2683678 0 -2.2965813 -1.0281982 -2.2965813 -2.2965698z" fill-rule="evenodd"/><path fill="#000000" d="m61.679497 679.1624l0 0c0 -1.2683716 1.0282135 -2.2965698 2.2965813 -2.2965698l9.186039 0l0 0c0.6090927 0 1.1932373 0.24194336 1.6239319 0.6726074c0.43068695 0.4307251 0.67264557 1.0148926 0.67264557 1.6239624l0 33.408142c0 1.2683716 -1.0282135 2.2965698 -2.2965775 2.2965698l-9.186039 0c-1.2683678 0 -2.2965813 -1.0281982 -2.2965813 -2.2965698z" fill-rule="evenodd"/><path stroke="#000000" stroke-width="1.0" stroke-linejoin="round" stroke-linecap="butt" d="m61.679497 679.1624l0 0c0 -1.2683716 1.0282135 -2.2965698 2.2965813 -2.2965698l9.186039 0l0 0c0.6090927 0 1.1932373 0.24194336 1.6239319 0.6726074c0.43068695 0.4307251 0.67264557 1.0148926 0.67264557 1.6239624l0 33.408142c0 1.2683716 -1.0282135 2.2965698 -2.2965775 2.2965698l-9.186039 0c-1.2683678 0 -2.2965813 -1.0281982 -2.2965813 -2.2965698z" fill-rule="evenodd"/><path fill="#000000" d="m78.634636 667.05164l0 0c0 -1.2683716 1.0282135 -2.2965698 2.296585 -2.2965698l9.186035 0l0 0c0.6090927 0 1.1932373 0.24194336 1.6239319 0.6726074c0.43068695 0.4307251 0.6726532 1.0148315 0.6726532 1.6239624l0 45.505615c0 1.2683716 -1.0282135 2.2965698 -2.296585 2.2965698l-9.186035 0c-1.2683716 0 -2.296585 -1.0281982 -2.296585 -2.2965698z" fill-rule="evenodd"/><path stroke="#000000" stroke-width="1.0" stroke-linejoin="round" stroke-linecap="butt" d="m78.634636 667.05164l0 0c0 -1.2683716 1.0282135 -2.2965698 2.296585 -2.2965698l9.186035 0l0 0c0.6090927 0 1.1932373 0.24194336 1.6239319 0.6726074c0.43068695 0.4307251 0.6726532 1.0148315 0.6726532 1.6239624l0 45.505615c0 1.2683716 -1.0282135 2.2965698 -2.296585 2.2965698l-9.186035 0c-1.2683716 0 -2.296585 -1.0281982 -2.296585 -2.2965698z" fill-rule="evenodd"/><path fill="#000000" d="m95.58978 654.94086l0 0c0 -1.2683716 1.0282135 -2.2965698 2.2965775 -2.2965698l9.186043 0l0 0c0.6090851 0 1.1932297 0.24194336 1.6239243 0.6726074c0.43069458 0.4307251 0.6726532 1.0148315 0.6726532 1.6239624l0 57.63025c0 1.2683105 -1.0282135 2.2965698 -2.2965775 2.2965698l-9.186043 0c-1.268364 0 -2.2965775 -1.0282593 -2.2965775 -2.2965698z" fill-rule="evenodd"/><path stroke="#000000" stroke-width="1.0" stroke-linejoin="round" stroke-linecap="butt" d="m95.58978 654.94086l0 0c0 -1.2683716 1.0282135 -2.2965698 2.2965775 -2.2965698l9.186043 0l0 0c0.6090851 0 1.1932297 0.24194336 1.6239243 0.6726074c0.43069458 0.4307251 0.6726532 1.0148315 0.6726532 1.6239624l0 57.63025c0 1.2683105 -1.0282135 2.2965698 -2.2965775 2.2965698l-9.186043 0c-1.268364 0 -2.2965775 -1.0282593 -2.2965775 -2.2965698z" fill-rule="evenodd"/><path fill="#000000" d="m112.54492 642.8301l0 0c0 -1.2683716 1.0282135 -2.2965698 2.2965775 -2.2965698l9.186043 0l0 0c0.6090851 0 1.1932297 0.24194336 1.6239243 0.6726074c0.43069458 0.4307251 0.6726532 1.0148315 0.6726532 1.6239624l0 69.72772c0 1.2683716 -1.0282135 2.2965698 -2.2965775 2.2965698l-9.186043 0c-1.268364 0 -2.2965775 -1.0281982 -2.2965775 -2.2965698z" fill-rule="evenodd"/><path stroke="#000000" stroke-width="1.0" stroke-linejoin="round" stroke-linecap="butt" d="m112.54492 642.8301l0 0c0 -1.2683716 1.0282135 -2.2965698 2.2965775 -2.2965698l9.186043 0l0 0c0.6090851 0 1.1932297 0.24194336 1.6239243 0.6726074c0.43069458 0.4307251 0.6726532 1.0148315 0.6726532 1.6239624l0 69.72772c0 1.2683716 -1.0282135 2.2965698 -2.2965775 2.2965698l-9.186043 0c-1.268364 0 -2.2965775 -1.0281982 -2.2965775 -2.2965698z" fill-rule="evenodd"/><path fill="#000000" d="m31.71022 669.8995l0.9229088 -0.74694824l11.948299 14.769226l-0.92290497 0.7470093zm1.8458138 -1.4939575l1.8458176 -1.4939575l11.948303 14.769287l-1.8458176 1.4939575zm2.7687263 -2.2409058l32.6978 -26.464783l-5.9741516 -7.3846436l26.714828 2.817566l-2.818222 26.720947l-5.9741516 -7.3846436l-32.697803 26.464783z" fill-rule="evenodd"/><path stroke="#000000" stroke-width="1.0" stroke-linejoin="round" stroke-linecap="butt" d="m31.71022 669.8995l0.9229088 -0.74694824l11.948299 14.769226l-0.92290497 0.7470093zm1.8458138 -1.4939575l1.8458176 -1.4939575l11.948303 14.769287l-1.8458176 1.4939575zm2.7687263 -2.2409058l32.6978 -26.464783l-5.9741516 -7.3846436l26.714828 2.817566l-2.818222 26.720947l-5.9741516 -7.3846436l-32.697803 26.464783z" fill-rule="evenodd"/><path fill="#ffffff" d="m114.67979 794.22076l0 0c0 -8.541016 6.9238663 -15.464844 15.464882 -15.464844l382.07812 0c4.1015625 0 8.035095 1.6293335 10.935303 4.529541c2.9002686 2.9002075 4.529602 6.8338013 4.529602 10.935303l0 61.857666c0 8.541016 -6.923889 15.464905 -15.464905 15.464905l-382.07812 0c-8.541016 0 -15.464882 -6.923889 -15.464882 -15.464905z" fill-rule="evenodd"/><path stroke="#000000" stroke-width="3.0" stroke-linejoin="round" stroke-linecap="butt" d="m114.67979 794.22076l0 0c0 -8.541016 6.9238663 -15.464844 15.464882 -15.464844l382.07812 0c4.1015625 0 8.035095 1.6293335 10.935303 4.529541c2.9002686 2.9002075 4.529602 6.8338013 4.529602 10.935303l0 61.857666c0 8.541016 -6.923889 15.464905 -15.464905 15.464905l-382.07812 0c-8.541016 0 -15.464882 -6.923889 -15.464882 -15.464905z" fill-rule="evenodd"/><path fill="#000000" fill-opacity="0.0" d="m163.97113 807.1496l308.56693 0l0 36.0l-308.56693 0z" fill-rule="evenodd"/><path fill="#000000" d="m196.48676 829.50275l3.796875 0.96875q-1.203125 4.65625 -4.296875 7.109375q-3.09375 2.453125 -7.5625 2.453125q-4.625 0 -7.53125 -1.875q-2.90625 -1.890625 -4.421875 -5.46875q-1.5 -3.578125 -1.5 -7.671875q0 -4.46875 1.703125 -7.796875q1.703125 -3.34375 4.859375 -5.0625q3.15625 -1.734375 6.953125 -1.734375q4.296875 0 7.21875 2.1875q2.9375 2.1875 4.078125 6.15625l-3.71875 0.875q-1.0 -3.125 -2.90625 -4.546875q-1.890625 -1.421875 -4.75 -1.421875q-3.3125 0 -5.53125 1.578125q-2.203125 1.578125 -3.109375 4.25q-0.890625 2.65625 -0.890625 5.5q0 3.640625 1.0625 6.375q1.0625 2.71875 3.296875 4.078125q2.25 1.34375 4.875 1.34375q3.1875 0 5.390625 -1.828125q2.203125 -1.84375 2.984375 -5.46875zm6.6992188 -0.328125q0 -5.765625 3.203125 -8.53125q2.671875 -2.3125 6.53125 -2.3125q4.265625 0 6.984375 2.8125q2.71875 2.796875 2.71875 7.734375q0 4.015625 -1.203125 6.3125q-1.203125 2.28125 -3.5 3.5625q-2.296875 1.265625 -5.0 1.265625q-4.359375 0 -7.046875 -2.796875q-2.6875 -2.796875 -2.6875 -8.046875zm3.609375 0q0 3.984375 1.734375 5.96875q1.75 1.984375 4.390625 1.984375q2.609375 0 4.34375 -1.984375q1.75 -2.0 1.75 -6.078125q0 -3.859375 -1.75 -5.828125q-1.75 -1.984375 -4.34375 -1.984375q-2.640625 0 -4.390625 1.96875q-1.734375 1.96875 -1.734375 5.953125zm19.949219 10.375l0 -20.75l3.15625 0l0 2.953125q2.296875 -3.421875 6.609375 -3.421875q1.875 0 3.4375 0.6875q1.578125 0.671875 2.359375 1.765625q0.78125 1.09375 1.09375 2.59375q0.203125 0.96875 0.203125 3.421875l0 12.75l-3.515625 0l0 -12.625q0 -2.140625 -0.421875 -3.203125q-0.40625 -1.0625 -1.453125 -1.703125q-1.046875 -0.640625 -2.453125 -0.640625q-2.234375 0 -3.875 1.4375q-1.625 1.421875 -1.625 5.40625l0 11.328125l-3.515625 0zm28.011719 0l-7.890625 -20.75l3.703125 0l4.453125 12.421875q0.71875 2.015625 1.328125 4.1875q0.46875 -1.640625 1.3125 -3.953125l4.609375 -12.65625l3.609375 0l-7.84375 20.75l-3.28125 0zm28.4375 -6.6875l3.625 0.453125q-0.859375 3.1875 -3.1875 4.953125q-2.3125 1.75 -5.9375 1.75q-4.546875 0 -7.21875 -2.796875q-2.65625 -2.8125 -2.65625 -7.875q0 -5.234375 2.6875 -8.125q2.703125 -2.890625 7.0 -2.890625q4.15625 0 6.796875 2.84375q2.640625 2.828125 2.640625 7.96875q0 0.3125 -0.03125 0.9375l-15.46875 0q0.203125 3.40625 1.9375 5.234375q1.734375 1.8125 4.34375 1.8125q1.921875 0 3.28125 -1.015625q1.375 -1.015625 2.1875 -3.25zm-11.546875 -5.671875l11.578125 0q-0.234375 -2.625 -1.328125 -3.9375q-1.671875 -2.03125 -4.359375 -2.03125q-2.421875 0 -4.078125 1.625q-1.640625 1.625 -1.8125 4.34375zm19.542969 12.359375l0 -20.75l3.171875 0l0 3.15625q1.203125 -2.21875 2.234375 -2.921875q1.03125 -0.703125 2.25 -0.703125q1.78125 0 3.625 1.140625l-1.21875 3.265625q-1.28125 -0.765625 -2.578125 -0.765625q-1.15625 0 -2.078125 0.703125q-0.90625 0.6875 -1.296875 1.90625q-0.59375 1.875 -0.59375 4.109375l0 10.859375l-3.515625 0zm12.7265625 1.71875l3.40625 0.515625q0.21875 1.578125 1.203125 2.296875q1.296875 0.984375 3.5625 0.984375q2.453125 0 3.78125 -0.984375q1.328125 -0.96875 1.796875 -2.734375q0.265625 -1.078125 0.25 -4.515625q-2.3125 2.71875 -5.75 2.71875q-4.265625 0 -6.609375 -3.078125q-2.34375 -3.09375 -2.34375 -7.40625q0 -2.96875 1.0625 -5.484375q1.078125 -2.515625 3.109375 -3.875q2.046875 -1.375 4.8125 -1.375q3.671875 0 6.046875 2.96875l0 -2.5l3.25 0l0 17.9375q0 4.84375 -1.0 6.859375q-0.984375 2.03125 -3.125 3.203125q-2.125 1.171875 -5.25 1.171875q-3.71875 0 -6.0 -1.671875q-2.28125 -1.671875 -2.203125 -5.03125zm2.90625 -12.46875q0 4.09375 1.609375 5.96875q1.625 1.875 4.078125 1.875q2.421875 0 4.0625 -1.859375q1.640625 -1.875 1.640625 -5.859375q0 -3.8125 -1.703125 -5.734375q-1.6875 -1.9375 -4.0625 -1.9375q-2.34375 0 -3.984375 1.90625q-1.640625 1.890625 -1.640625 5.640625zm34.183594 4.0625l3.625 0.453125q-0.859375 3.1875 -3.1875 4.953125q-2.3125 1.75 -5.9375 1.75q-4.546875 0 -7.21875 -2.796875q-2.65625 -2.8125 -2.65625 -7.875q0 -5.234375 2.6875 -8.125q2.703125 -2.890625 7.0 -2.890625q4.15625 0 6.796875 2.84375q2.640625 2.828125 2.640625 7.96875q0 0.3125 -0.03125 0.9375l-15.46875 0q0.203125 3.40625 1.9375 5.234375q1.734375 1.8125 4.34375 1.8125q1.921875 0 3.28125 -1.015625q1.375 -1.015625 2.1875 -3.25zm-11.546875 -5.671875l11.578125 0q-0.234375 -2.625 -1.328125 -3.9375q-1.671875 -2.03125 -4.359375 -2.03125q-2.421875 0 -4.078125 1.625q-1.640625 1.625 -1.8125 4.34375zm19.589844 12.359375l0 -20.75l3.15625 0l0 2.953125q2.296875 -3.421875 6.609375 -3.421875q1.875 0 3.4375 0.6875q1.578125 0.671875 2.359375 1.765625q0.78125 1.09375 1.09375 2.59375q0.203125 0.96875 0.203125 3.421875l0 12.75l-3.515625 0l0 -12.625q0 -2.140625 -0.421875 -3.203125q-0.40625 -1.0625 -1.453125 -1.703125q-1.046875 -0.640625 -2.453125 -0.640625q-2.234375 0 -3.875 1.4375q-1.625 1.421875 -1.625 5.40625l0 11.328125l-3.515625 0zm35.777344 -7.59375l3.453125 0.4375q-0.5625 3.578125 -2.90625 5.609375q-2.328125 2.015625 -5.71875 2.015625q-4.265625 0 -6.859375 -2.78125q-2.578125 -2.78125 -2.578125 -7.984375q0 -3.359375 1.109375 -5.875q1.125 -2.515625 3.390625 -3.78125q2.28125 -1.265625 4.953125 -1.265625q3.375 0 5.515625 1.71875q2.15625 1.703125 2.765625 4.84375l-3.421875 0.53125q-0.484375 -2.09375 -1.734375 -3.140625q-1.234375 -1.0625 -2.984375 -1.0625q-2.65625 0 -4.328125 1.90625q-1.65625 1.90625 -1.65625 6.03125q0 4.171875 1.59375 6.078125q1.609375 1.890625 4.1875 1.890625q2.078125 0 3.453125 -1.265625q1.390625 -1.28125 1.765625 -3.90625zm20.671875 0.90625l3.625 0.453125q-0.859375 3.1875 -3.1875 4.953125q-2.3125 1.75 -5.9375 1.75q-4.546875 0 -7.21875 -2.796875q-2.65625 -2.8125 -2.65625 -7.875q0 -5.234375 2.6875 -8.125q2.703125 -2.890625 7.0 -2.890625q4.15625 0 6.796875 2.84375q2.640625 2.828125 2.640625 7.96875q0 0.3125 -0.03125 0.9375l-15.46875 0q0.203125 3.40625 1.9375 5.234375q1.734375 1.8125 4.34375 1.8125q1.921875 0 3.28125 -1.015625q1.375 -1.015625 2.1875 -3.25zm-11.546875 -5.671875l11.578125 0q-0.234375 -2.625 -1.328125 -3.9375q-1.671875 -2.03125 -4.359375 -2.03125q-2.421875 0 -4.078125 1.625q-1.640625 1.625 -1.8125 4.34375z" fill-rule="nonzero"/><path fill="#ffffff" d="m7.3779526 825.1496l0 0c0 -38.477295 31.192005 -69.66931 69.66929 -69.66931l0 0c18.477448 0 36.198105 7.340149 49.263634 20.4057c13.065529 13.065491 20.405663 30.786194 20.405663 49.26361l0 0c0 38.477295 -31.192009 69.66931 -69.6693 69.66931l0 0c-38.477283 0 -69.66929 -31.192017 -69.66929 -69.66931z" fill-rule="evenodd"/><path stroke="#000000" stroke-width="3.0" stroke-linejoin="round" stroke-linecap="butt" d="m7.3779526 825.1496l0 0c0 -38.477295 31.192005 -69.66931 69.66929 -69.66931l0 0c18.477448 0 36.198105 7.340149 49.263634 20.4057c13.065529 13.065491 20.405663 30.786194 20.405663 49.26361l0 0c0 38.477295 -31.192009 69.66931 -69.6693 69.66931l0 0c-38.477283 0 -69.66929 -31.192017 -69.66929 -69.66931z" fill-rule="evenodd"/><path fill="#000000" d="m79.748535 830.4449l-9.512085 9.517456l3.8512573 0c0 13.189941 10.701218 23.871033 23.883705 23.871033c7.70253 0 14.52684 -3.6467896 18.895058 -9.336487l0 0c-3.2051926 2.0950928 -7.030815 3.2844238 -11.114685 3.2844238c-10.44297 0 -19.024178 -7.758606 -20.36853 -17.81897l3.851265 0l-9.485985 -9.517456z" fill-rule="evenodd"/><path fill="#000000" d="m76.85333 776.0039l0 0c3.5156403 1.4481812 6.694725 3.9051514 9.02124 7.293152c5.9190674 8.586487 4.4199524 20.069336 -3.1017075 26.897034l-2.1973953 -3.1808472l-2.4295273 13.241638l13.208122 2.4309082l-2.1969223 -3.2069702c10.856438 -7.474121 13.595955 -22.345459 6.100395 -33.20752c-4.368683 -6.3622437 -11.269913 -9.905518 -18.404205 -10.267395z" fill-rule="evenodd"/><path fill="#000000" d="m61.11219 811.8237l0 3.8534546c-13.182957 0 -23.883705 10.707214 -23.883705 23.897095c0 7.706909 3.6703987 14.56073 9.356861 18.9057c-2.0939064 -3.2069702 -3.28257 -7.009094 -3.28257 -11.120911c0 -10.448853 7.7542686 -19.034912 17.809414 -20.380005l0 3.8795776l9.512085 -9.517456l-9.512085 -9.517456z" fill-rule="evenodd"/></g></svg>